<?xml version="1.0" encoding="UTF-8"?>
<svg width="1080" height="1080" version="1.1" viewBox="0 0 810 810" xmlns="http://www.w3.org/2000/svg">
 <g fill="#fff">
  <path transform="scale(.75)" d="m899.72 551.87c-1.7266 8e-3 -2.7434 1.8001-2.6223 3.3716 0.0113 2.2499-0.28831 4.9549 1.4872 6.6645 1.2373 1.2177 3.2449 0.92318 4.4436-0.19215 1.691-1.2306 3.0016-3.5495 1.9675-5.6038-0.87882-1.6752-2.4048-2.9587-3.9846-3.9506-0.39899-0.20178-0.8447-0.30027-1.2914-0.2895z"/>
  <path transform="scale(.75)" d="m891.64 581.23c-2.179 0.25994-3.4511 2.4179-4.2695 4.2407-0.68606 1.8795-1.6189 3.7832-1.6204 5.8186 0.0616 1.776 2.0874 2.8289 3.6622 2.1917 1.8257-0.7104 3.802-0.80308 5.6578-1.3808 1.8013-0.69034 4.0464-1.9407 3.9784-4.1586-0.2887-2.191-2.1682-3.7124-3.732-5.0813-1.0614-0.8111-2.2742-1.6821-3.6764-1.6303z"/>
  <path transform="scale(.75)" d="m872.81 609.17c-1.7731 1.5181-3.1205 3.4829-4.6976 5.2038-0.89665 1.0048-2.183 2.3291-1.4262 3.7697 0.64154 1.5285 2.5674 1.6278 3.9255 2.1745 1.4916 0.37559 3.3183 1.4382 4.6685 0.16452 1.2904-1.2887 0.82563-3.3058 0.94289-4.9518-0.0958-1.7506 0.15026-3.5428-0.25441-5.2584-0.59244-1.1738-1.9616-1.6537-3.1587-1.1024z"/>
  <path transform="scale(.75)" d="m551.62 183.73c-26.366 0.56522-52.97 1.9296-78.764 7.7436-7.2267 1.9673-13.827 5.7953-21.161 7.3149-4.9038 2.1186-9.7611 4.7549-13.381 8.7695-20.319 0.92221-40.908-0.82642-61.024 2.7326-16.934 4.2138-33.467 9.9463-50.06 15.246-8.9552 4.4169-18.678 9.2521-24.467 17.68-1.9373 3.8489 2.4721 5.9972 5.377 6.944 12.168 8.7694 9.168 26.814 20.248 36.534 8.4928 10.084 21.964 12.57 33.221 18.273 8.8355 3.9717 19.439 7.4978 27.44 11.233-6.4397 0.36446-13.298-4.4805-19.419-1.2893-2.4565 4.9605-4.7503 10.374-7.9122 15.111-2.2017 5.2725-7.7016 10.348-6.4784 16.447 1.523 3.7709-2.8125 7.3273-3.2737 11.08-0.95529 3.7012 0.1707 7.6652-2.2542 11.069-1.5228 3.1631-3.4025 7.1971-0.79475 10.329-1.7874 6.9772-7.8543 12.917-7.5638 20.307 2.0857 3.7681-2.7859 7.273-4.2066 10.399-6.6161 8.9014-13.058 17.99-17.578 28.149-6.6549 12.012-14.856 23.213-25.629 32.077-14.122 13.821-30.945 24.513-44.396 39.078-1.4018 3.445-0.77657 7.5827-4.0107 10.223-10.433 13.159-23.679 24.089-32.712 38.323-6.7909 12.529-15.077 24.229-20.956 37.275-1.9386 5.5177-7.0114 10.787-6.0738 16.933 2.4871 3.9799-1.5901 8.5783-1.9393 12.649-1.6606 7.1314-5.4923 14.233-4.9983 21.649 0.20247 2.9077 5.0889 0.6546 3.9978 3.4792-0.45483 6.7628-2.6577 13.398-3.0891 20.079 0.15946 3.3664 5.8073 0.76556 4.3944 4.1247-0.87115 4.1511-2.355 8.5394-0.0835 12.506 0.20302 3.2534-3.2125 8.1893 1.4322 9.879 2.6862 1.1755 0.49044 5.4668 0.89268 7.795-0.45566 4.0494-2.1523 9.8792 2.7439 11.783 1.8697 5.248-0.10967 11.123 1.6152 16.276 3.5046 0.46604 5.7652 0.97099 5.0495 5.043 0.17419 3.7336 3.0029 6.357 4.4362 9.4904 1.3263 1.472 4.3243 0.13009 3.9095 3.232 0.31233 4.0165 1.3864 8.1484 5.0109 10.362 3.0449 4.1645 2.9224 9.7171 5.8105 14.076 2.7121 5.3819 3.7377 11.692 7.9106 16.133 4.3693 9.6642 12.944 16.105 20.768 22.778 7.378 8.5712 14.478 17.505 23.58 24.396 18.545 14.879 39.691 26.94 62.463 33.948 6.0718 1.4537 12.645 0.61572 18.042 4.3494 9.2699 4.323 18.728 11.515 29.467 9.5193 1.9652-4.2154-3.1824-8.1608-4.3366-12.205-0.94765-1.9816-2.6016-5.1203-2.7487-6.7353 4.1423 4.2508 5.2678 11.017 10.335 14.272 2.5896 0.61661 4.8781-2.2004 7.4963-0.4608 3.0099 1.8495 6.5335-1.3693 4.2338-4.3302-2.3859-5.7166-6.2544-11.713-7.9475-17.175 5.8175 6.8245 8.8377 15.826 14.757 22.375 5.1025-0.5537 1.805-7.2282 2.2749-10.634-0.75048-7.22-0.91022-16.455-8.5863-19.976-11.025-6.9949-22.831-12.714-34.144-18.986-6.9379-0.215-13.827 2.3799-20.755 2.7616-57.264-1.1316-29.656 8.2698-0.53466-2.784 7.9047-1.7517 18.254 0.30372 23.913-6.7642 2.8202-2.9496 7.7203-1.1709 11.374-2.6925 8.4861-1.5345 14.048-8.8726 19.525-14.533-1.2948 6.355-11.64 11.461-14.822 16.588-0.0162 5.0599 10.851 0.73205 13.753 0.2565 5.3678-0.82466 10.464-3.7177 15.831-3.9822 5.5111 2.6852 10.402-3.423 16.009-3.0714 2.5065-0.65484 4.4479-2.9569 5.711 0.87503 4.5549 2.691 7.372-5.1334 11.688-5.3465 4.6605 1.7692 10.412 2.2254 14.244-1.3888 2.1288-0.80125 4.1915-2.5818 5.271-4.2932-1.0995 4.0022 4.4297 4.6177 5.8458 1.3776 2.3051-2.3102 3.2179-6.4694 5.7334-8.0952 5.6277 0.88383 8.3371-5.7121 13.289-6.9312 3.5027-3.8155 1.4447-10.849-2.898-12.933-0.83124-4.6199 1.0834-9.9714-1.4016-14.171-1.9571-2.2654-6.7885 2.9343-7.1688-1.3535-1.3254-5.0245 0.78803-10.919-2.0182-15.426-1.451-1.3386-4.5472-0.0779-4.0572-3.301-0.17599-3.5417-1.1579-7.708-4.8134-9.0425-0.49009-5.4637 2.4536-12.398-2.5464-16.454-3.2096-11.525-0.75075-23.553-0.25368-35.329 0.293-2.4798 0.4861-5.4298 1.2058-7.6521 1.2319 5.4547-0.39438 11.781 3.6847 16.309-0.17891 4.705-2.8755 10.076-0.36927 14.477 2.2418 1.3174 4.7359-0.56822 3.9191 3.355-0.16642 3.1928-0.3148 8.2908 3.9047 8.7204 0.66154 5.0825-1.8733 9.9958-1.9588 14.946 0.93311 3.3488 4.8674 0.53555 6.1284 0.87182 0.5966 4.1025-3.0091 10.857 3.0485 11.95 3.4182 0.66273 5.08 3.1735 4.4157 6.5535 0.84051 5.2049-1.4802 11.588 1.8271 16.147 3.7606 1.51 1.6671 7.1394 2.8226 10.284 0.63757 4.8338 3.6538 8.9045 3.3781 13.963 0.70038 10.855 2.2995 21.622 4.2483 32.288-0.12748 11.503 3.7208 22.669 2.8741 33.927 1.1232 10.103-5.0854 19.21-6.7418 28.825 2.3416 4.3685 7.8972 0.21061 10.955-1.1576 3.1232-1.7335 6.0286-3.8485 8.5881-6.3436 6.4972 3.7199 12.3 9.2705 19.349 11.753 4.8608-2.0349 4.6045-8.7499 5.894-13.172 1.6638-4.4645 7.689-0.71685 10.931-0.87769 5.9234 0.50819 12.132 3.5427 18.033 1.9502 3.7406-3.1982-1.2893-7.7258-2.6861-10.902-2.981-4.8014-7.618-8.9214-7.2844-15.094-0.88751-8.7292-4.3034-17.34-3.8052-26.121 5.2504-8.1334 1.1631-18.141 3.2962-26.691 2.8045-6.7115-0.0264-14.343-0.31785-21.33-0.085-3.8346-2.4223-8.7055 1.2732-11.579 2.4827-6.5608-0.21125-13.872 0.22031-20.688 0.0948-9.3865-1.8849-18.913 0.11205-28.002 3.3706-12.95 2.0688-26.552 6.0976-39.416 2.7144-10.485 3.8045-21.441 7.6733-31.596-2.2616 18.894-6.6527 37.521-8.3682 56.512-2.1174 19.669-3.2803 39.645-2.2246 59.325 3.52 4.5117 5.5555-3.4151 6.3621-6.1504 0.89446-2.1006 1.1067-5.5857 4.2355-4.5277 4.1252 0.0345 4.1444-5.2737 6.4832-7.0917 2.2538 1.2744 5.1438 1.8284 6.9055-0.72089 4.7513-5.7822 11.573-10.442 13.008-18.282 0.79673-3.4036 5.3525-2.2099 6.1075-5.772 1.9044-3.3878 2.2985-9.0403 6.8798-9.7393 3.4227-3.9683 3.1236-10.68 7.1704-14.195 3.1423 1.7767 7.0654 3e-3 7.066-3.8003 2.847-9.5231 3.1099-19.936 7.3358-28.961 1.4624 1.2375 5.2869 1.9239 5.666-1.3053 1.8382-6.0778-0.46108-12.943 2.1482-18.701 3.7448-6.0873 0.97762-13.823 1.4741-20.559-0.28285-4.981-0.37747-9.6082 0.80261-14.374-0.49381-12.374-4.7964-24.245-7.1848-36.218 4.7542 0.66232 4.7723-5.1399 3.5916-8.2438-3.0988-13.66-4.806-27.69-10.581-40.596-0.98141-2.782-2.9609-5.8923-0.39337-8.4356 1.696-5.9061-2.5762-11.655-3.757-17.327-5.0224-14.319-10.19-28.504-15.004-42.841-3.3312-4.8565-9.9784-5.3128-14.946-2.8217-2.5563 0.73361-5.8499 2.5944-7.214-0.65272-2-2.5947-5.9945 1.1036-7.0388-2.365-3.5925-4.787-10.441 0.22182-14.696-2.4035-1.987-2.8848-5.6431-1.7032-8.3232-1.7565 2.5636-1.93 2.6822-6.2234-1.0099-6.822-6.5171-2.2707-14.016-2.246-19.991-5.202-1.5695-4.0018-6.0714-4.1826-9.2962-5.8041-4.484-6.0146-13.431-3.3821-19.122-5.4059 6.509-1.5052 14.117-0.24802 21.137-0.10597 5.9101 0.2465 11.896 1.0368 17.523 3.004 1.3792 0.58244 5.4392-0.43883 5.3128 0.91838-3.6207 2.3156-2.0221 7.3984 1.8705 8.2397 8.3081 1.3487 16.349 4.5085 24.937 4.125 6.7156 0.3268 13.275 0.21323 19.902 0.94535-4.4741 2.4222-2.1739 7.7786 2.6941 6.1091 7.6546-0.54472 15.041-3.1635 22.703-3.4632-1.3578 3.1964 1.8153 6.5958 4.9564 4.5052 6.7636-2.1614 13.173-5.5328 20.392-4.7476 9.0622-1.445 18.008-6.1739 26.649-7.3438 0.86046 4.3957 6.0225 4.1038 8.8562 1.8432 5.1142-1.9013 10.733-2.9597 14.416-7.4417 9.0009-9.0922 19.647-17.811 24.305-30.075 1.6953-4.2852-2.1554-8.9993-6.7433-7.8897-13.517 0.32058-26.6 8.1158-38.15 12.271 9.5783-8.1011 22.19-11.525 33.954-15.272 5.4444-1.8525 12.468-1.2488 15.217-7.3563 5.6219-6.7447 10.449-14.35 15.284-21.497-0.42872 6.3852-5.5323 11.47-7.9924 17.184-0.71815 4.271 4.8209 3.9123 6.989 1.8528 7.6872-4.2241 9.7923-13.713 14.052-20.763 8.3792-17.455 15.325-35.716 20.159-54.456 1.0036-5.7452-7.3999-4.2312-8.3136-9.1517 1.4508-4.3019 8.8396-5.3022 9.1276-10.788-7e-3 -8.1354-7.382-13.716-12.885-18.727-6.1327-4.6167-13.376-7.4107-19.791-11.598-30.019-15.126-59.552-31.266-90.048-45.42-13.108-5.1969-26.065-10.843-39.689-14.647-16.407-4.6345-32.767-10.346-49.799-12.093-3.8841-0.23167-7.7775-0.2725-11.667-0.26178zm189.5 111.69c4.1475 0.45501 9.7159 0.0847 12.6 3.476-2.8613 3.8516-7.6206 6.6469-12.106 8.2429-6.0605-0.0339-9.0844-8.8165-2.6716-11.261 0.65777-0.382 1.4312-0.4585 2.1771-0.45758zm-500.12 259.55c-1.0072 2.8553-5.1335 5.5991-7.3342 8.328-9.2746 8.809-16.816 19.181-23.468 30.033 4.3155-14.1 16.023-24.21 25.938-34.481 1.527-1.257 3.177-3.2766 4.8648-3.8806zm-29.043 63.371c-4.1733 9.9114-7.509 20.563-11.176 30.334 1.6008-10.254 4.811-20.574 10.309-29.431 0.13669-0.12195 0.84929-1.1475 0.867-0.90232zm7.9732 48.799c0.47809 3.7037-1.8376 7.8908-1.9538 11.823-1.8911 11.253-2.3904 22.663-3.4858 33.98-0.3722-14.425 0.45599-29.282 3.818-43.443 0.36448-0.86949 0.83549-1.8018 1.6216-2.3602zm169.77 14.9c9.7976 2.3107 15.678 11.881 19.785 20.283 2.081 4.7828 3.6752 9.9927 3.2191 15.264-3.2573-12.176-8.0927-25.932-19.657-32.525-1.965-1.3162-6.1492-0.87997-7.1319-2.0294 1.0387-0.84873 2.4824-1.0658 3.7843-0.99223zm-155.73 24.929c-4.8006 12.096-3.3941 25.484-4.8183 38.185 0.0682-10.893-1.1738-21.897 0.84613-32.654 0.78673-2.0308 2.2563-4.8321 3.9721-5.5311zm165.91 4.2306c7.4121 6.9487 10.857 17.101 14.729 26.344 2.4826 8.2978 5.2605 16.979 2.7551 25.448-4.9921 2.0736-2.6214 8.832-3.0844 12.987-0.25965 5.7507 1.292 13.622-1.4674 18.174 1.9424-15.572-2.309-31.129-6.1011-46.113 2.6892 3.1368 3.061 9.1664 7.1132 10.35 4.0984-1.2627 1.1863-6.8673 1.3464-10.162-2.0742-13.359-8.3136-25.613-15.399-36.917l-0.0642-0.22157zm4.2355 73.273c1.0755 7.7212 8e-3 16.126-2.2462 23.674-1.5273 4.2774-2.9813 3.9312-1.7035-0.29863 2.0389-7.6774 1.4556-15.887 3.5692-23.364l0.29702-0.0145zm-68.307 46.69c-0.0723 0.0897 0.185-0.29961 0 0z"/>
  <path transform="scale(.75)" d="m644.5 668.89c-6.165-3.4262-2.0732-18.704 0.30906-22.519 1.5852-2.5384 0.21735-6.7536-2.6224-20.348-5.1666-24.734-5.787-31.763-5.243-40.61l0.79001-12.846 10.602 0.0948c4.7273 0.0423 15.213 0.93923 24.418 1.4238l22.516 1.1852 7.2038 7.1491c2.9786 2.956 0.611 10.984 3.3374 17.535 5.0669 12.176 12.668 19.91 23.174 27.479l13.176 9.4927-4.4261 1.7446c-2.0942 0.82545-1.8932 2.5564-8.0981 1.1916-1.6319-0.35895-7.7321 2.7872-15.024 3.1617-6.6513 0.34159-11.95 3.2769-12.598 4.3269-0.64482 1.0433-9.2403 1.2096-14.194 1.4901-8.5034 0.48146-2.5982-1.159-2.553 2.904 0.042 3.7742-7.0193 6.2577-13.924 8.0274-4.3304 1.1098-7.6988 2.7225-8.8203 4.2787-3.6783 5.104-13.695 7.2432-18.023 4.838z"/>
  <path transform="scale(.75)" d="m759.74 636.72c-19.713-2.9416-28.348-5.2759-39.344-14.97-10.282-9.0639-16.865-24.046-20.491-44.182-4.5592-25.321-4.2613-53.022 11.293-83.22l8.2118-15.942 6.5622-29.989c1.2293-5.6179 103.26-28.998 107.24-17.834l9.5848 26.887 8.8662 7.4895c14.847 12.542 31.197 37.05 36.069 49.432 3.0258 7.6898 10.34 15.66 7.0902 28.536l-5.3768 21.306-4.6157 18.939c-7.8776 32.323-29.945 46.478-64.388 54.743-17.05 4.0912-22.484 4.509-43.329 1.3986z"/>
  <path transform="scale(.75)" d="m745.52 440.01c-1.073-1.1236-23.36-48.727-23.015-49.071 0.22136-0.22136 9.0607-1.886 10.15-1.3639 2.882 1.3818 18.911 27.795 19.768 29.091 1.6687 2.5216 10.973 16.099 10.973 16.99 0 0.4635-3.6831 0.92717-6.0128 2.4024-5.4283 3.4374-10.43 3.4523-11.863 1.9515z"/>
 </g>
 <path d="m391.02 670.61c-6.5925-4.3006-6.7812-4.3635-8.9276-2.968-4.0687 2.6417-9.9104 4.9768-13.574 5.421-2.7007 0.33022-3.7621 0.11794-4.1238-0.81373-0.26337-0.69189 1.1125-5.6766 3.0584-11.078 3.4358-9.529 3.5223-10.044 3.0152-17.556-0.7823-11.601-1.3798-15.052-2.6142-15.052-1.7769 0-2.0874-2.0717-1.2226-8.1689 0.44422-3.1567 0.55822-6.1443 0.25159-6.6397-0.33807-0.54643-1.1793-0.0904-2.111 1.144-1.1636 1.541-1.7965 1.8083-2.5356 1.0693-0.72333-0.71941-0.73512-1.4545-0.0472-2.7361 1.1715-2.1936 1.1951-2.9916 0.0668-2.2919-0.47959 0.29484-1.6629 2.0835-2.626 3.9744-1.8201 3.5655-3.9665 4.0805-3.6088 0.86877 0.31055-2.7675-1.0182-2.2211-2.8422 1.1676-0.97098 1.7965-2.2761 3.0112-3.2392 3.0112-1.0968 0-1.4506-0.41671-1.0968-1.2894 1.5921-3.9311 1.2462-3.8997-2.4412 0.21228-4.45 4.965-6.962 5.9124-6.2859 2.3665 0.22801-1.1833 0.34202-2.1503 0.25553-2.1503-0.0865 0-2.001 1.7651-4.2496 3.9233-4.5365 4.3439-7.6146 4.8785-8.106 1.4113l-0.28305-1.9813-3.7424 2.1975c-3.0938 1.8083-4.1473 2.0403-6.0422 1.3208-1.3641-0.51891-2.1228-1.3366-1.8594-2.0167 0.45208-1.1872-0.30662-1.1007-12.045 1.3484-2.7007 0.56216-7.5713 0.69582-12.285 0.34202-4.3006-0.32629-8.2003-0.34988-8.6721-0.059-1.5371 0.9474 9.364 7.76 11.817 7.3827 1.2029-0.18476 4.5404 4.0609 7.1232 9.0573 1.4152 2.74 1.9144 5.4839 2.1385 11.711 0.31842 8.9472-0.28304 11.086-2.6968 9.5802-1.1715-0.73119-1.7926-0.60147-2.8186 0.58967-1.2619 1.4624-1.5331 1.4584-6.396-0.0865-2.7911-0.8845-5.3974-2.1189-5.7905-2.74-0.53465-0.84124-0.7194-0.73904-0.72726 0.40492-8e-3 0.84519 0.56609 1.7572 1.2737 2.0285 0.71153 0.27125 1.2933 1.2265 1.2933 2.1228 0 1.4702-0.71546 1.6275-7.4338 1.6275-6.7498 0-7.8112-0.23586-11.624-2.5788-2.3036-1.4191-4.792-2.5827-5.5232-2.5827-0.73121 0-6.8205-1.7848-13.531-3.9665-13.405-4.3597-39.697-15.956-46.03-20.3-2.2093-1.5174-9.0494-7.5714-15.198-13.456-6.1522-5.881-13.543-12.595-16.428-14.919-2.8854-2.3194-6.1443-5.8416-7.2411-7.8269-1.0968-1.9813-3.4083-5.7355-5.1301-8.334-4.4068-6.6554-7.4141-12.792-8.0981-16.526-0.31843-1.7572-0.95526-3.428-1.4113-3.7071-0.45207-0.28304-0.82554-0.1022-0.82554 0.40099 0 0.49925-0.77443 0.90808-1.7218 0.90808-1.4152 0-1.7179-0.57394-1.7179-3.2668 0-1.7965-0.35774-3.6363-0.79409-4.0844-0.43636-0.45208-1.1361-2.1739-1.5567-3.8289-0.49533-1.9263-1.368-3.1213-2.4334-3.3218-0.91596-0.1769-1.9656-0.75478-2.3312-1.2934-0.36166-0.53463-0.45995-3.8761-0.21621-7.4259 0.24373-3.5459 0.19263-5.8692-0.11399-5.1616-0.76658 1.7887-2.0678 2.5081-3.5223 1.9498-1.2186-0.46781-1.14-3.0859 0.33415-10.98 0.45993-2.4648 0.42063-2.5041-0.84127-0.86091-1.1715 1.5292-1.4624 1.5764-2.5906 0.43242-1.0142-1.03-1.1164-2.2407-0.50319-5.9989 0.62111-3.825 0.52677-4.8432-0.50319-5.4171-0.69974-0.3931-1.2698-1.3287-1.2698-2.0796s-0.62898-1.828-1.3995-2.3901c-1.2816-0.93955-1.2108-1.824 0.86092-10.476 1.2422-5.2009 2.2604-9.6784 2.2604-9.9576 0-0.27518-0.77049-0.30271-1.71-0.0551-1.0732 0.27911-1.9026-0.059-2.2289-0.90416-0.28304-0.74298 0.80982-6.8795 2.4334-13.645 2.3154-9.643 2.7046-12.352 1.7965-12.572-1.8123-0.43636-1.372-4.0373 1.5331-12.521 2.9759-8.6996 4.9611-12.898 10.657-22.533 2.1228-3.5891 3.8564-6.6829 3.8564-6.8834 0-0.19655-0.57787-0.35772-1.2894-0.35772-1.8516 0-1.5882-1.9656 0.6447-4.8196 1.0653-1.3602 7.8151-8.8411 14.997-16.621 11.813-12.8 13.016-14.388 12.572-16.605-0.44815-2.2447 0.53857-3.4673 11.502-14.242 6.5925-6.4824 15.194-14.301 19.105-17.38 10.555-8.2908 17.804-15.154 23.441-22.203 2.8265-3.5262 5.0358-7.1507 5.0358-8.2475 0-1.0811 1.8752-4.6348 4.1631-7.9016 2.2879-3.2668 4.1631-6.5217 4.1591-7.2293 0-0.71154 1.6354-4.1748 3.6324-7.7011 2.1582-3.8053 3.4633-7.076 3.2078-8.051-0.23981-0.91595 0.97098-4.4815 2.7321-8.0352 2.6653-5.3856 2.9601-6.5139 1.8909-7.1743-1.0968-0.67616-1.1086-1.1715-0.0904-3.6166 0.64471-1.5607 1.254-4.6191 1.3484-6.793 0.10221-2.4255 1.0575-5.5508 2.4648-8.0667 1.2619-2.2565 2.2958-4.5404 2.2958-5.0712 0-0.5307 2.0992-4.45 4.6584-8.7074 4.2692-7.0918 4.5208-7.7915 3.0073-8.3576-0.90415-0.33807-1.6471-0.96311-1.6471-1.3877 0-0.42456 1.8909-2.5395 4.2024-4.6977l4.1984-3.9311-4.6544-1.8869c-2.5592-1.0378-5.5114-2.5592-6.565-3.3729-1.0496-0.81768-3.4594-1.9734-5.3503-2.571-5.2795-1.6628-10.976-5.6097-15.025-10.417-2.8972-3.4319-4.167-6.05-5.9989-12.383-1.2816-4.4186-3.0073-9.0691-3.8368-10.331-0.82947-1.2658-2.8226-2.854-4.4343-3.5262-3.5223-1.4702-5.8928-4.7685-5.138-7.1428 1.0575-3.3297 9.9576-10.343 18.645-14.691 4.7449-2.3783 9.4858-4.3203 10.528-4.3203 1.0457 0 6.3724-1.5017 11.837-3.3375 20.458-6.8756 32.609-8.5424 51.891-7.1272 10.535 0.77444 11.227 0.72727 12.316-0.82554 1.2226-1.7494 8.3694-5.6136 15.87-8.5895 4.1906-1.6629 20.969-5.0633 24.974-5.0633 0.97098 0 2.5041-0.66831 3.4083-1.486 1.4545-1.3169 4.3007-1.5213 24.581-1.7808 12.615-0.15724 25.839 0.0865 29.385 0.5425 10.999 1.4152 43.632 10.795 51.785 14.883 1.7572 0.88058 4.0451 1.6039 5.0869 1.6039 1.0417 0 10.913 4.6427 21.932 10.319 11.019 5.6766 20.619 10.319 21.33 10.319 0.71547 0 3.7306 1.5882 6.7026 3.5302s11.349 6.4235 18.618 9.9654c20.748 10.103 27.372 14.883 30.777 22.191 1.5607 3.3493 2.0088 5.8063 2.0128 11.031 0.0118 5.3699-0.68402 9.0377-3.4358 18.244-4.5916 15.339-7.0918 22.132-11.243 30.537-1.9027 3.8604-4.2456 9.0102-5.2048 11.447-0.95919 2.4412-2.3901 5.1537-3.1803 6.0304-0.79015 0.88056-3.0781 2.4334-5.0869 3.4515l-3.6441 1.8555 3.6088 5.1498c1.9892 2.8304 3.8407 5.3424 4.1159 5.5783 0.66435 0.56608 10.276 16.711 12.418 20.855 0.91595 1.7769 2.2722 3.2156 3.0112 3.1999 0.73512-0.0196 3.8564-0.60538 6.9306-1.3091 17.336-3.9586 30.14-6.3959 33.631-6.3999 3.0034-4e-3 4.7842 0.59754 7.3984 2.4923 2.6496 1.9184 3.9822 3.8486 5.7905 8.3851 3.8407 9.6391 7.0249 14.419 16.094 24.165 4.7331 5.0869 9.7924 10.991 11.239 13.118 1.4466 2.1307 3.0899 4.2574 3.6442 4.7331 1.6314 1.3838 8.5935 14.309 9.7256 18.06 1.3012 4.2928 2.7872 12.859 2.7872 16.067 0 1.7415 1.199 3.6442 4.2967 6.8087 2.795 2.8501 4.3006 5.1301 4.3006 6.4942 0 2.394-3.1095 5.6215-6.9424 7.2097-1.6118 0.66831-3.0584 2.1896-3.825 4.0216-1.1872 2.8383-1.144 3.027 1.1125 5.0161 1.2894 1.1322 2.626 2.0756 2.968 2.0914 0.342 0.0117 1.1951 1.1282 1.8909 2.4766 1.1204 2.166 1.1164 2.6692-8e-3 4.2771-1.258 1.8004-8.389 4.454-11.958 4.454-1.0339 0-2.6535 1.1086-3.7149 2.5434-1.5607 2.111-1.883 3.7031-1.883 9.2893 0 4.1002-0.40491 7.1507-1.03 7.7758-1.3995 1.3995-5.7591 1.2934-8.6367-0.20835-2.2368-1.1676-2.681-1.03-8.8136 2.7204-3.5537 2.17-6.4588 4.2731-6.4588 4.6741 0 0.40097-0.40491 0.72725-0.89629 0.72725-0.49533 0-3.3022 1.1204-6.2387 2.4884-3.1017 1.4467-9.4779 3.251-15.229 4.3085-5.4407 0.99851-11.825 2.2329-14.191 2.74-4.8589 1.0457-14.954 0.0865-22.765-2.1621-5.9832-1.7218-19.542-1.8398-21.46-0.18478-0.82947 0.71547-5.535 1.5449-12.061 2.1228-7.6225 0.68009-10.897 1.3091-11.388 2.1857-0.42062 0.75085-2.799 1.4584-6.0697 1.8083-7.3001 0.78229-8.393 1.1754-8.393 2.9994 0 1.7965-3.8053 3.5459-11.396 5.2323-3.0466 0.67613-4.9454 1.5449-4.9454 2.2643 0 1.6707-4.8117 4.3636-9.6627 5.4014-2.2919 0.4914-4.8746 1.5725-5.7434 2.4019-0.94739 0.90416-1.9852 3.884-2.5985 7.4534-0.55821 3.2707-1.5724 6.7419-2.2565 7.7168-0.68007 0.97493-1.2383 2.5985-1.2383 3.6127 0 1.0142-0.77442 2.8265-1.7218 4.0294-0.94741 1.2029-1.7218 2.4845-1.7218 2.8461 0 0.35773-0.54642 1.2658-1.2147 2.0127-0.66829 0.7469-1.5764 2.7125-2.0127 4.3675-0.51498 1.9538-1.2776 2.9719-2.1778 2.8972-0.86877-0.0668-1.5842 0.81375-1.9262 2.3744-0.68009 3.0859-3.6992 4.9886-5.0712 3.1921-1.6078-2.1071-3.7228-0.85699-4.3164 2.5474-1.1793 6.8048-3.0584 9.2932-5.307 7.0406-0.58967-0.58966-1.3562 0.66043-2.3587 3.8446-0.82159 2.5985-2.2761 5.2716-3.2392 5.9439-0.95919 0.67616-2.398 2.5238-3.196 4.108-1.0378 2.0717-1.9656 2.8304-3.2825 2.6968-1.4624-0.14939-1.9498 0.40491-2.3822 2.7125-0.55429 2.9562-4.0845 6.1876-5.6805 5.2009-0.45995-0.28304-0.83734-0.0707-0.83734 0.47568 0 0.54642-0.83733 2.17-1.8594 3.6088-1.6589 2.3272-1.9774 2.4609-2.8894 1.2108-0.92773-1.2698-1.2501-1.1951-3.3532 0.75478-1.5528 1.4348-2.1582 2.685-1.824 3.7464 0.27911 0.87272-0.0236 2.0245-0.66436 2.5592-0.90023 0.74299-1.0771 3.0545-0.76657 10.001 0.24765 5.5743 0.059 9.4504-0.4914 10.119-1.4113 1.7179-1.1204 23.481 0.38919 29.035 1.3405 4.9218 4.6505 10.956 9.1517 16.668 2.5198 3.1999 2.5631 3.3808 1.0142 4.5129-2.2879 1.6747-10.04 1.4467-17.596-0.51498-3.5301-0.91595-6.4785-1.5882-6.5532-1.4899-0.58181 0.75086-3.6284 8.393-4.1002 10.284-0.43637 1.7415-1.1243 2.3626-2.6142 2.3626-1.1164 0-5.0554-1.9773-8.7586-4.395zm8.3812-3.1292c0.53069-1.3012 1.195-3.9154 1.482-5.8063 0.44814-2.9641 0.84518-3.479 2.8972-3.7149 1.3091-0.14938 6.0068 0.56608 10.437 1.5882 4.4264 1.026 8.6563 1.7297 9.3915 1.5646 1.0535-0.23193 0.49925-1.6393-2.571-6.5335-2.1543-3.428-4.2574-6.2348-4.678-6.2348-0.42456 0-0.77837-1.4506-0.79015-3.2274-0.0118-1.7729-0.77445-6.5139-1.6982-10.535-2.0756-9.0612-2.1661-13.181-0.31449-14.714 1.1872-0.98671 1.3209-2.3469 0.85699-8.8529-0.4285-6.0736-0.28304-7.9763 0.69973-9.0573 1.081-1.199 1.0653-2.7361-0.11794-12.037-1.2815-10.087-1.2737-10.724 0.15725-11.774 1.4231-1.0378 1.4466-2.1542 0.41277-18.476-0.97098-15.296-0.9474-17.486 0.18869-18.319 0.97099-0.71153 1.4309-3.6992 1.8752-12.128 0.34594-6.5886 1.0811-12.242 1.7926-13.759 0.66436-1.4191 2.2407-8.275 3.5026-15.229 2.1739-12.006 3.4751-15.308 5.5311-14.038 1.2934 0.79802 1.1204 3.4083-0.85304 12.867-4.4147 21.13-7.3001 50.649-6.6986 68.433l0.2791 8.1689 1.5607-4.9257c0.86092-2.7125 1.942-5.1655 2.4019-5.4525 0.46387-0.28304 1.3798-0.0747 2.0363 0.47174 0.93167 0.77443 1.3916 0.61718 2.111-0.7312 0.50713-0.94347 0.91989-2.284 0.91989-2.9719 0-1.8437 2.7872-2.6339 3.9036-1.1086 0.79409 1.0811 1.3641 0.81768 3.6795-1.7022 1.5056-1.6432 2.74-3.369 2.74-3.8407 0-0.46781 0.91595-1.199 2.0402-1.6275 1.4624-0.55822 2.2172-1.714 2.6574-4.0648 0.72725-3.8879 1.8398-5.4368 3.8958-5.4368 1.0457 0 1.8319-1.1715 2.5828-3.8564 1.1282-4.0294 2.7911-6.109 4.1945-5.2402 0.456 0.27913 1.1007-0.75083 1.4349-2.2918 0.80588-3.7424 3.6481-9.2539 4.7684-9.2539 0.49533 0 1.6 0.37344 2.457 0.83339 1.4191 0.75871 1.7258-0.0825 3.4987-9.6745 1.0732-5.7827 2.453-11.77 3.0741-13.307 1.1361-2.8108 2.3823-3.5262 3.369-1.9341 1.4349 2.3233 2.1503 0.19263 2.1503-6.4038 0-6.0421 0.25945-7.4495 1.5685-8.3851 1.3877-0.99458 1.4938-1.8634 0.91201-7.5714-0.99457-9.7885-0.91201-16.342 0.20837-16.342 0.66043 0 0.77835-1.1597 0.36559-3.656-0.33414-2.0127-0.7312-4.8156-0.8845-6.2348-0.14939-1.4191-1.4584-6.2308-2.9012-10.689-1.4427-4.4579-2.4098-8.4598-2.1425-8.8922 0.26733-0.4285 1.2147-0.58967 2.1071-0.35774 1.4506 0.37739 1.5646 0.0511 1.1007-3.1528-0.28304-1.9656-1.085-5.877-1.7847-8.6917-0.69974-2.8186-1.4545-6.6868-1.6825-8.6013-0.22409-1.9145-1.7415-6.8205-3.369-10.897-1.6275-4.0805-2.9602-7.8347-2.9602-8.3458 0-0.50711 0.58575-1.2501 1.2973-1.6511 1.1204-0.62899 0.90023-1.9616-1.6078-9.7178-1.6-4.9454-4.8942-14.156-7.3197-20.462-2.4255-6.3095-4.4107-12.312-4.4107-13.338 0-1.2462-0.85699-2.2447-2.5906-3.0112-2.2132-0.97884-3.1842-0.9474-6.6043 0.22015-5.1144 1.7415-7.1468 1.7336-7.1468-0.0314 0-1.1046-0.55821-1.2855-2.6614-0.86485-2.2211 0.44422-2.74 0.23194-3.137-1.2816-0.43635-1.6668-0.86877-1.7651-5.5193-1.2383-4.2181 0.47566-5.134 0.33808-5.5822-0.83733-0.41276-1.0732-1.2108-1.2816-3.365-0.87664-3.3965 0.63683-4.568-0.70761-2.5552-2.9326 1.3562-1.4978 1.2816-1.6275-1.4191-2.4923-1.5685-0.49925-5.4918-1.3562-8.7192-1.9027-4.9218-0.8334-5.9871-1.3248-6.6436-3.0466-0.58968-1.5567-1.427-2.0521-3.4594-2.0521-1.9184 0-2.8068-0.46779-3.1134-1.6393-0.52677-2.0127-2.6574-2.6338-9.1124-2.6496-3.7582-8e-3 -5.1026-0.34593-5.4996-1.3877-0.2909-0.75871 0.0118-1.7454 0.67223-2.1975 0.71939-0.49532 6.3684-0.61325 14.101-0.29483 10.024 0.40882 13.122 0.81374 13.897 1.8201 0.72726 0.95133 1.8201 1.144 4.0766 0.71939 2.4805-0.46387 3.1921-0.28304 3.6599 0.93168 0.36953 0.96706 0.0236 1.9145-0.97885 2.6456-1.2855 0.93954-1.368 1.368-0.46387 2.457 0.61718 0.74691 2.4648 1.3169 4.2535 1.3169 1.7415 0 3.5341 0.34987 3.9822 0.77444 1.3798 1.3091 8.9669 2.0796 18.582 1.8869 9.9222-0.19655 12.029 0.64471 8.5856 3.4358-1.0339 0.83341-1.5606 1.714-1.1715 1.9538 0.70368 0.43636 15.744-2.2604 18.331-3.2864 0.76657-0.30269 1.8516 0.0432 2.4688 0.78623 0.8845 1.0614 0.88842 1.5882 0.0355 2.6181-0.58968 0.71154-0.73513 1.2894-0.32237 1.2855 0.41277 0 3.8368-1.2029 7.6028-2.6692 5.2677-2.0481 7.1979-2.453 8.3261-1.7454 1.1361 0.71153 3.6559 0.14153 11.035-2.4884 5.2559-1.8791 10.158-3.4122 10.889-3.4122 0.73512 0 1.5371 0.77443 1.7808 1.7218 0.24766 0.94347 0.61718 1.7179 0.81374 1.7179 0.2005 0 1.9459-0.80587 3.88-1.7926 1.9302-0.98672 4.2102-1.6078 5.0633-1.3877 1.1046 0.2909 4.1198-2.2132 10.52-8.7507 11.117-11.345 14.793-17.906 11.542-20.603-0.79802-0.66435-3.0466-0.58966-7.9527 0.2634-4.7842 0.82946-9.1713 2.3744-14.584 5.134-4.2574 2.1739-8.4441 3.9429-9.305 3.9311-1.1204-0.0118-1.486-0.5543-1.2894-1.9184 0.41277-2.8579 14.333-9.6234 25.792-12.536l9.1792-2.3312 4.855-5.9478c2.6692-3.2707 5.8023-7.8151 6.962-10.103 1.1597-2.2918 2.4412-4.1631 2.8501-4.1631 0.40491 0 1.14 0.48353 1.6275 1.0771 1.2501 1.5135-0.58573 6.4235-4.3793 11.707l-3.0859 4.2928 3.1803-1.3169c1.7454-0.72334 3.652-1.7061 4.2338-2.1778 1.6432-1.3366 10.079-18.354 13.582-27.388 3.483-8.9866 7.6225-21.381 8.5502-25.603 0.52284-2.3744 0.36953-2.7321-1.1557-2.7321-2.0953 0-5.2598-3.1646-5.2598-5.252 0-0.82161 1.3091-2.2997 2.913-3.2904 4.4225-2.7322 4.8982-3.597 3.9193-7.1389-1.1204-4.0648-9.8946-12.261-14.651-13.688-1.9145-0.57393-3.939-1.6707-4.4972-2.4412-0.55823-0.76656-3.6206-2.4963-6.8048-3.8368-3.1882-1.3444-10.154-4.9257-15.485-7.9645-5.3306-3.0388-11.817-6.4353-14.419-7.5517-2.6024-1.1164-11.31-5.535-19.353-9.8239-8.0431-4.2889-15.555-7.8033-16.696-7.8112-1.14-4e-3 -3.6952-0.95919-5.6726-2.1189-5.3818-3.1528-24.361-9.4033-41.988-13.826-15.158-3.8053-16.035-3.9233-28.961-3.9468-13.511-0.0275-38.694 2.3272-52.036 4.8628-3.7817 0.71941-9.1477 2.453-11.923 3.8525-2.7754 1.3995-5.3896 2.3351-5.8063 2.0756-1.144-0.70761-11.082 4.8549-11.082 6.2033 0 0.64076-0.48352 1.2029-1.0732 1.2462-0.5936 0.0394-9.0102 0.0196-18.708-0.0472-21.059-0.14151-25.714 0.59753-45.715 7.2844-7.7325 2.5867-14.777 4.7056-15.654 4.7134-2.6692 0.0196-13.319 6.0775-17.843 10.142-3.3926 3.0506-4.0569 4.0727-3.2707 5.0201 0.54249 0.6565 1.4663 1.1911 2.056 1.1911 1.8476 0 5.5861 3.479 7.249 6.7498 0.88057 1.7258 2.4452 6.2859 3.479 10.127 1.6943 6.2977 2.3705 7.4888 6.8795 12.124 3.77 3.8761 6.1286 5.5114 9.5762 6.6397 2.5159 0.82161 6.333 2.3823 8.4834 3.4673 5.4485 2.7439 15.689 6.9345 22.828 9.3404 3.6402 1.2265 6.0186 2.5041 6.0186 3.2392 0 1.8358-3.6127 1.9656-9.6234 0.33808-5.6962-1.5449-8.2868-1.2934-7.5124 0.72332 0.25159 0.66436-0.66435 2.9051-2.0402 4.9768-1.3759 2.0756-3.9901 6.4549-5.8023 9.7374-2.1543 3.8958-2.9444 6.0854-2.2761 6.3055 1.5921 0.5307 1.2226 2.5631-1.2186 6.7301-1.7336 2.9601-2.0167 4.0923-1.258 5.0122 0.76264 0.91596 0.44028 2.3115-1.4113 6.1326-1.7258 3.5616-2.0992 5.0515-1.3248 5.3188 0.59359 0.20442 1.0771 0.96707 1.0771 1.6982 0 0.73119-1.6157 4.2574-3.593 7.8348-2.2958 4.163-3.2274 6.6279-2.5788 6.8441 1.9538 0.65257 0.97098 3.8132-2.685 8.6446-7.8033 10.3-11.691 16.306-11.577 17.871 0.0707 0.89631-1.8712 4.3754-4.3124 7.7286-2.4373 3.3532-4.8078 7.076-5.2638 8.2711-0.89238 2.3508-24.404 24.09-28.155 26.036-1.254 0.65256-5.8967 4.5208-10.311 8.5974-7.0564 6.5139-7.9134 7.6107-7.0367 9.0141 0.86877 1.3916 0 2.7007-6.675 10.064-4.222 4.6545-10.665 11.668-14.313 15.583-3.7503 4.0176-6.4471 7.6146-6.1955 8.2672 0.2398 0.63292-1.6118 4.0255-4.1198 7.5399-2.512 3.5144-4.9768 7.3434-5.48 8.503-0.50319 1.1636-3.2904 6.7733-6.1955 12.466-4.6466 9.1084-5.1105 10.457-3.884 11.231 1.2658 0.79801 1.1833 1.482-0.87664 7.2804-2.1503 6.0579-4.8982 16.023-4.8982 17.773 0 0.44421 0.86877 0.77443 1.9341 0.73905 2.28-0.0825 2.2958 0.42849 0.31448 10.252-0.76265 3.7817-1.3877 7.135-1.3916 7.4456 0 0.31056 0.77051 0.36167 1.71 0.11401 2.4216-0.62898 2.8737 1.3208 1.3248 5.7119-1.1911 3.369-1.1872 3.8289 0.0236 4.7174 1.0811 0.79016 1.1636 1.4545 0.43635 3.3768-1.3012 3.4162-1.1322 4.6898 0.59361 4.5562 1.1754-0.0943 1.4978 0.53859 1.4742 2.8894-0.0196 1.655-0.32629 4.7999-0.68402 6.9856-0.58181 3.5656-0.4678 4.0216 1.1086 4.4343 1.5764 0.41278 1.7572 1.1361 1.7572 7.0485 0 6.3291 0.0707 6.565 1.824 6.0107 2.3312-0.73906 3.3808 0.87664 2.7203 4.1866-0.36559 1.8162-0.11006 2.7321 0.91596 3.31 0.77837 0.43636 1.4191 1.482 1.4191 2.3233 0 1.0339 0.62505 1.5096 1.9341 1.4624 1.71-0.059 1.9656 0.40884 2.1975 4.0176 0.17298 2.6928 0.65258 4.0844 1.4074 4.0844 1.6 0 3.9193 3.8093 3.9193 6.4392 0 1.2068 0.90023 3.6402 2.0009 5.4053 1.1007 1.7651 2.5002 5.0397 3.1174 7.2765 0.61718 2.2368 1.4584 3.8604 1.8712 3.6048 0.41276-0.25553 0.75478-0.0629 0.75478 0.42849 0 1.3838 5.59 9.7452 7.8583 11.754 1.1164 0.98671 3.4948 2.6732 5.2874 3.7464 1.7887 1.0693 4.5483 3.9665 6.1286 6.4392 4.6112 7.2058 21.531 21.256 33.485 27.801 10.131 5.5468 11.943 6.392 20.918 9.7885 6.0814 2.3036 9.5015 3.1567 11.239 2.8108 2.9562-0.58967 6.447 0.75871 15.029 5.8063 4.7999 2.8225 7.2176 3.711 10.303 3.7896l4.0333 0.10221-3.4751-6.3291c-1.9105-3.479-3.251-6.8991-2.9837-7.6028 1.0064-2.6181 3.0584-1.1007 6.1444 4.5326 1.7494 3.1921 3.3257 5.9556 3.4987 6.1443 0.17689 0.18478 0.90414-0.14545 1.6118-0.73511 0.98671-0.81767 1.9459-0.84912 4.0215-0.12579 1.4978 0.52284 2.8343 0.95133 2.968 0.95133 0.12973 0-1.6982-3.5105-4.0648-7.8072-2.3705-4.2928-4.0962-8.3536-3.8368-9.0298 1.0103-2.6417 3.2196-0.95132 6.7379 5.1616 2.0206 3.5105 4.5562 7.8662 5.6372 9.6745 1.9145 3.2157 1.9498 3.2314 1.5056 0.71153-0.2516-1.4191-0.51891-4.9021-0.59361-7.7404-0.14545-5.3424-2.4255-10.752-4.5326-10.752-0.59753 0-1.7376-0.72334-2.5395-1.6039-0.79802-0.88452-6.451-4.0451-12.564-7.025-6.1129-2.9798-10.889-5.7827-10.614-6.2269 0.29485-0.47567-0.28697-0.55823-1.4191-0.20049-3.1174 0.99064-11.223 2.2761-17.218 2.7361-3.4869 0.26732-6.1915 0.96706-7.19 1.8594-1.1715 1.0457-3.1292 1.4113-7.3119 1.3641-5.6805-0.0668-14.231-2.28-15.261-3.9508-0.29877-0.48351 8e-3 -1.4309 0.684-2.1071 1.0575-1.0535 1.7022-1.0575 4.627-0.0275 1.8712 0.66042 5.138 1.4388 7.2608 1.7297l3.8604 0.5307-3.656-1.3523c-3.4594-1.2776-4.6623-3.0663-2.8265-4.1984 0.45601-0.28304 3.1252 0.0825 5.9282 0.80982 5.7591 1.4899 13.885 1.7611 13.885 0.45994 0-0.4796 2.3115-0.86093 5.2087-0.86093 2.8658 0 6.9581-0.44028 9.0966-0.97884 2.7911-0.69975 4.108-1.5528 4.6623-3.0073 0.64469-1.6982 1.3759-2.0324 4.4461-2.0363 6.1915-0.0118 10.284-1.6314 13.995-5.5508 1.8948-1.997 4.0884-4.564 4.8746-5.7041 1.0928-1.5803 1.6747-1.8358 2.457-1.0771 0.79803 0.77049 0.79409 1.714-0.0236 4.1827-1.1911 3.6166-7.0013 9.8711-9.1674 9.8711-0.78623 0-1.2265 0.20835-0.971 0.46388 0.64077 0.64077 12.831-1.9538 16.629-3.542 2.4648-1.03 3.3926-1.085 4.3793-0.26732 1.0024 0.8334 1.9381 0.65651 4.6584-0.8727 1.9223-1.0811 4.1041-1.6943 5.0043-1.4074 0.91594 0.2909 2.056-0.0511 2.681-0.80587 1.4624-1.7612 2.1818-1.6472 3.141 0.49924 0.7823 1.7533 0.91203 1.7179 4.5326-1.3091 2.9484-2.4609 3.9822-2.909 4.9296-2.1228 1.7494 1.4545 7.0249 1.5921 7.5556 0.20049 0.24372-0.63683 1.1361-1.1597 1.9774-1.1597 0.84126-4e-3 2.2054-1.1911 3.027-2.6378 1.6864-2.9641 3.652-2.5749 2.8658 0.56215-0.85306 3.3886 1.5528 1.6157 3.6442-2.685 1.026-2.111 2.4491-3.8368 3.1646-3.8368 0.71546 0 1.3012 0.4167 1.3012 0.91989 0 0.50711 1.3444-0.50319 2.9916-2.2486 1.8752-1.9852 3.479-2.9837 4.3007-2.6692 1.0496 0.40491 1.3091-0.24373 1.3091-3.2786 0-3.2707-0.26339-3.821-1.9341-4.0608-1.8437-0.25946-1.9223-0.58575-1.6471-6.7222 0.25552-5.6648 0.14545-6.2584-0.9081-4.8668-0.74298 0.98672-1.997 1.4742-3.2982 1.2934-2.0206-0.28697-2.1071-0.57396-2.2132-7.1586-0.10613-6.6082-0.18869-6.8598-2.1503-6.8795-1.8201-0.0196-2.0678-0.46387-2.3036-4.108-0.22408-3.4751-0.52678-4.0844-2.0442-4.0844-1.6904 0-1.7533-0.31449-1.2029-5.9085 0.5307-5.3699 0.43242-5.9478-1.0693-6.3409-1.372-0.36166-1.7376-1.4938-2.17-6.7773-0.28697-3.4908-0.0472-11.569 0.5307-17.957 0.97492-10.685 1.1951-11.609 2.7793-11.609 1.541 0 1.7179 0.57394 1.7179 5.5901 0 4.2299 0.36166 5.9046 1.4899 6.8795 1.2383 1.0732 1.3484 1.8673 0.66437 4.7292-0.45208 1.8948-0.82947 4.5522-0.84126 5.9124-0.0196 2.0678 0.18475 2.2997 1.2304 1.4309 2.2526-1.8712 3.2825-0.13758 2.6692 4.4893-0.47567 3.5852-0.35773 4.2181 0.70368 3.8093 2.4766-0.95132 3.1056 1.3798 1.8201 6.7655-1.5528 6.4982-1.5528 6.8402-8e-3 5.5547 0.70367-0.58182 1.9027-0.82161 2.6614-0.53072 1.1243 0.43244 1.2737 1.313 0.80195 4.7449-0.57395 4.1709-0.55429 4.2181 2.0599 4.792 1.4506 0.31841 2.8894 0.98277 3.196 1.4781 0.30663 0.49533 0.47959 4.2967 0.38918 8.448-0.14939 6.8087-0.0118 7.536 1.3916 7.418 1.3366-0.11007 1.5882 0.69188 1.8083 5.7198 0.18082 4.1434 0.6211 5.991 1.5056 6.3291 0.96313 0.36953 1.2501 2.225 1.2501 8.0785 0 4.1788 0.38524 7.8347 0.86091 8.1296 0.47173 0.2909 0.85698 2.6142 0.85698 5.1576 0 2.5474 0.38919 4.8706 0.86092 5.1616 0.47566 0.29485 0.86092 3.7778 0.86092 7.7404 0 3.9665 0.33021 7.4141 0.73118 7.6618 0.40491 0.24765 0.99851 4.5444 1.3209 9.5448 0.57788 8.959 0.53857 9.2224-2.5199 17.737-1.71 4.7527-2.9169 8.8332-2.681 9.0691 0.73119 0.7312 8.6249-3.141 10.956-5.3739l2.2171-2.1228 7.2451 4.7331c3.9822 2.6024 7.3512 4.741 7.481 4.7488 0.12972 8e-3 0.66829-1.0457 1.199-2.3469zm-101.3-57.328c-0.28304-0.74299-0.0433-2.6142 0.53071-4.1591 0.57788-1.541 1.2933-6.4824 1.5921-10.976 0.49925-7.477 0.69974-8.1925 2.3783-8.4323 1.4781-0.20836 1.9066 0.27125 2.2407 2.5316 0.68009 4.6505-0.84126 16.11-2.5238 18.991-1.8319 3.141-3.4869 3.9429-4.2181 2.0442zm9.4622-13.063c1.3759-3.5852 1.4663-6.0893 0.5425-14.71-0.54643-5.1105-1.938-12.108-3.0899-15.548s-2.0953-6.8244-2.0953-7.5242c0-0.69975 0.57002-1.2737 1.2658-1.2737 1.2855 0 3.082 2.8933 5.2913 8.5227 1.2029 3.0624 1.2108 3.0388 0.8098-2.5002-0.22407-3.0741-1.1833-7.8387-2.1385-10.587-2.3822-6.8716-6.8048-15.677-8.7625-17.45-1.9852-1.7965-2.1385-4.6466-0.25159-4.6466 3.5341 0 10.355 11.569 14.199 24.082 2.3233 7.5674 2.74 16.837 0.80981 18.036-0.68795 0.42455-1.6039 0.55429-2.0324 0.29089-0.45207-0.28304-0.52676 0.99852-0.18082 3.0663 0.33021 1.9498 0.63291 6.6082 0.67615 10.355 0.0511 5.0436-0.30664 7.3787-1.3877 9.0298-1.6118 2.4609-4.5365 3.1449-3.656 0.85698zm-136.88-34.468c-0.35773-0.86486-0.63685-7.3827-0.62506-14.478 0.0157-10.347 0.3027-13.421 1.4506-15.544 1.9223-3.5655 3.4633-4.7449 4.9768-3.8093 1.0457 0.64864 0.97885 1.254-0.42063 4.0373-1.3405 2.6653-1.7376 5.8299-2.1189 16.967-0.33807 9.8435-0.7705 13.794-1.5449 14.05-0.58968 0.19656-1.3641-0.35379-1.7179-1.2226zm137.92-21.932c-0.18477-0.62898-0.99065-3.711-1.7847-6.848-1.6982-6.679-7.2411-15.673-11.117-18.036-1.4702-0.8963-3.9272-1.6275-5.4643-1.6314-2.1896 0-2.795-0.36166-2.795-1.6668 0-2.0835 2.6574-2.9759 6.6397-2.2289 4.0923 0.7705 10.17 7.0957 13.924 14.494 2.3233 4.5758 2.9405 6.8362 3.0034 11.039 0.0551 3.5144-0.27518 5.4053-0.99064 5.653-0.58967 0.20441-1.2265-0.14152-1.4152-0.77443zm-149.32-13.401c0-11.333 1.8673-24.711 3.8289-27.392 0.68794-0.94348 1.6353-1.2737 2.5985-0.90417 1.0889 0.41672 1.3562 1.1164 0.95132 2.5041-1.9498 6.679-3.0899 14.588-3.6048 24.931-0.5307 10.724-0.73513 11.825-2.1778 11.825-1.4663 0-1.5921-0.86879-1.596-10.964zm-9.7256-38.615c-1.0457-1.0457-0.64077-4.1434 1.4663-11.184 3.5616-11.9 7.5635-18.142 9.5605-14.911 0.29483 0.4796-0.45209 2.8972-1.6589 5.3738-1.2108 2.4806-3.2825 8.1571-4.6073 12.615-2.2683 7.6303-3.365 9.5015-4.7606 8.106zm32.18-12.289c-1.4231-0.88057-0.97884-2.9916 2.5552-12.084 2.7636-7.1114 8.4126-15.241 12.89-18.543 2.5041-1.8476 3.0427-1.9656 4.1159-0.89237 1.0732 1.0732 0.67616 1.7808-3.027 5.3856-5.0318 4.9021-7.7876 9.4072-11.467 18.767-1.486 3.7857-2.9719 7.1546-3.2943 7.4888-0.32235 0.33808-1.1204 0.28304-1.7729-0.12187zm-25.588-30.608c-1.2776-3.3297 6.6868-15.005 17.155-25.14 3.542-3.428 6.8205-6.2348 7.2844-6.2348 0.4678 0 1.3012 0.54643 1.8555 1.2147 0.81375 0.97885 0.29484 1.8594-2.6653 4.5169-8.6603 7.7758-15.21 15.835-20.127 24.75-1.2422 2.2565-2.8265 2.6574-3.5026 0.89236zm398.13-214.32c-2.2879-0.44029-4.5247-3.3493-4.5247-5.8849 0-0.99457 0.95525-2.7046 2.1268-3.8053 1.9184-1.8005 2.6417-1.938 7.5242-1.4349 5.3031 0.54644 7.5517 1.9066 7.5517 4.5601 0 1.0811-8.8962 7.2844-10.123 7.0564-0.34593-0.0668-1.4938-0.28304-2.5552-0.49139zm-147.72-15.441c-1.4191-0.1887-8.389-1.3562-15.485-2.5906-7.0957-1.2344-17.108-2.3665-22.25-2.512-5.1419-0.14938-9.5762-0.49925-9.8593-0.78229-0.27911-0.2791-0.0983-1.1676 0.40884-1.9734 0.69974-1.1164 2.4098-1.5253 7.1586-1.7179l6.2348-0.25552-0.38525-2.6417c-0.2162-1.4545-0.12186-4.1159 0.20835-5.9124l0.59753-3.2707-6.3291-4.0098c-6.3409-4.0176-8.1374-5.9439-7.418-7.9527 0.64865-1.8122 2.6221-1.2186 6.8991 2.0717 5.8023 4.4658 15.607 8.849 32.475 14.533 8.0431 2.7085 15.689 5.4603 16.986 6.1129 2.4845 1.2501 3.1488 3.483 1.254 4.2102-0.61324 0.23587-2.7911-0.16511-4.8392-0.88843-2.0481-0.72333-4.0648-1.313-4.4776-1.313-0.41276 0-0.75085 0.93561-0.75085 2.0835 0 1.8516 0.50711 2.166 4.5169 2.8029 3.6913 0.58966 4.5129 1.03 4.5129 2.4334 0 1.4034-0.61324 1.7297-3.4397 1.8162-1.8909 0.059-4.5994-0.0511-6.0186-0.24372zm-119.52-4.6191c-9.0612-1.9066-17.372-4.8549-17.953-6.3684-0.22408-0.58967-0.0943-1.5803 0.2909-2.2054 0.55822-0.90022 2.3312-0.59359 8.735 1.5096 4.4225 1.4545 11.813 3.2353 16.432 3.9587 4.6152 0.72726 8.7743 1.5567 9.246 1.8476 0.46781 0.28698 0.84912 1.085 0.84912 1.7651 0 1.7612-7.9173 1.5331-17.6-0.50712zm-38.305-16.275c0-1.0221 1.5292-2.7282 3.9272-4.3753 8.7704-6.0343 21.193-10.213 40.734-13.696 15.379-2.74 22.427-2.2054 22.427 1.7061 0 1.5292-0.44028 1.6314-4.9493 1.1597-3.5105-0.3656-8.4401 0.12578-16.986 1.6982-19.546 3.5931-30.706 7.3787-39.563 13.417-3.2982 2.2526-5.5901 2.2879-5.5901 0.0904zm244.08 304.36c1.5607-0.54249 2.4845-1.372 2.2368-2.0127-0.22801-0.59753 0.0865-1.482 0.69973-1.9695 0.60933-0.48745 4.5876-1.7926 8.8333-2.9012 5.8849-1.5371 7.2136-2.1307 5.594-2.5159-2.3115-0.54643-3.027-2.28-1.7533-4.2653 0.61719-0.95527 2.3351-1.199 7.194-1.0182 5.8338 0.21621 6.4274 0.0825 6.852-1.5371 0.38133-1.4584 1.1479-1.7769 4.2849-1.7769 2.1032 0 6.7812-0.24766 10.402-0.5543 5.6333-0.47566 6.5807-0.78622 6.5807-2.1503 0-1.7297 0.26731-1.8044 6.0186-1.6511l3.8722 0.10615-5.4092-2.9602c-5.763-3.1528-16.385-11.958-17.148-14.219-0.25551-0.75083-1.714-4.2653-3.2471-7.8112-1.5292-3.5498-3.6599-9.5762-4.7331-13.393l-1.9498-6.9424-4.678 0.38918c-4.7331 0.39312-30.27-1.2422-33.277-2.1307-1.5096-0.44815-1.596-0.0943-1.1636 4.6938 0.28304 3.0899 0.11007 5.535-0.42456 6.0736-0.62505 0.62112-0.47173 2.4216 0.49533 5.8888 0.77049 2.7439 1.1872 5.7827 0.93167 6.7537-0.25552 0.96707 0.13759 3.483 0.86878 5.5901 0.73119 2.1032 1.3444 4.5994 1.3562 5.5468 0.0157 0.9474 0.56608 3.2707 1.2265 5.1616 1.0339 2.9641 1.7022 8.6681 1.4349 12.257-0.0433 0.58968-0.70367 1.0732-1.4702 1.0732-1.4309 0-1.4073 1.3916 0.23193 13.547 0.5425 4.0058 1.3956 4.3832 6.1404 2.7282zm113.36-22.364c10.307-2.4334 19.255-5.4564 24.373-8.2396 7.6736-4.1788 16.979-11.4 21.436-16.637 4.2417-4.9807 11.326-17.942 13.9-25.423 2.3194-6.7458 2.9444-14.773 1.8398-23.728-1.0811-8.7979-3.6559-15.524-10.024-26.205-4.3439-7.2804-9.0848-13.346-20.843-26.669l-4.6505-5.2716-5.3188 1.3169c-2.9248 0.72726-9.8947 2.626-15.489 4.222-12.855 3.6677-20.076 5.1852-31.972 6.7183-19.251 2.4766-25.592 2.4806-33.54 0.0355-1.5017-0.46386-2.453 0.97101-7.4927 11.33-3.1764 6.5217-6.9581 15.536-8.4087 20.033-3.137 9.7099-5.2952 27.286-4.2338 34.472 3.2864 22.238 6.5453 30.34 15.453 38.427 3.0466 2.7675 6.9345 5.877 8.6367 6.907 5.4996 3.3375 14.239 6.1208 25.045 7.9841 5.8102 0.99851 10.756 2.0206 10.991 2.2683 0.67223 0.69973 15.595-0.43243 20.296-1.541zm-47.225-16.829c-0.32628-0.32235-0.5936-4.0294-0.5936-8.2357v-7.6421l-4.7016-2.0796c-2.5867-1.144-6.164-2.6968-7.9566-3.4515-2.9798-1.254-3.1213-1.4624-1.7179-2.5041 0.84521-0.62505 4.2653-2.0127 7.5989-3.0859 7.0053-2.2525 7.6303-3.1842 7.65-11.42 0.0157-5.535 0.87665-8.0824 2.4137-7.135 0.49532 0.30662 2.7439 3.0663 4.9925 6.1326 2.7557 3.7542 4.6741 5.5704 5.8652 5.5586 0.97099-8e-3 4.5758-0.74297 8.0038-1.6314 4.0451-1.0535 6.4274-1.3169 6.7773-0.75084 0.29483 0.47959-1.482 3.7739-3.9469 7.3198l-4.4854 6.451 3.9469 6.4549c2.17 3.5498 3.9429 6.9974 3.9429 7.6618 0 1.3641-1.6786 1.1007-9.647-1.5135-2.7046-0.88842-5.2716-1.6118-5.7041-1.6118-0.43634 0-3.0112 2.6103-5.7277 5.8023-2.7125 3.196-5.2009 5.9124-5.5272 6.0382-0.32629 0.12974-0.86092-0.0314-1.1833-0.35772zm58.77-16c8e-3 -1.0653 0.52677-4.3635 1.1479-7.3355l1.1322-5.3974-5.881-4.3596c-3.2314-2.3941-5.877-4.678-5.877-5.0672 0-0.8098 2.5552-1.3916 9.7413-2.2093 2.7596-0.31449 5.1616-1.0103 5.3345-1.541 0.1769-0.5307 1.1518-3.7739 2.1661-7.2018 1.0142-3.4319 2.2093-6.2348 2.6496-6.2348 0.44422 0 2.2447 2.9994 4.0019 6.6632l3.1999 6.6672 7.5242-0.20048c5.9714-0.16117 7.5242 0.0472 7.5242 1.0024 0 0.66043-2.3783 3.3532-5.2834 5.9832l-5.2834 4.7842 2.2801 6.2544c1.2501 3.4437 2.2722 6.7419 2.2722 7.3316-8e-3 1.7887-1.9027 1.2422-7.9566-2.2997l-5.7748-3.3729-5.3935 4.2181c-2.9641 2.3194-5.877 4.226-6.4667 4.2338-0.5936 8e-3 -1.0693-0.85305-1.0575-1.9184zm-33.631-35.404c-0.20049-0.19656-0.16511-3.7071 0.0707-7.8033 0.34201-5.9439 0.16904-7.6696-0.86091-8.5541-0.71153-0.60933-3.9036-2.3783-7.0957-3.9272-3.1921-1.5489-5.8063-3.3022-5.8063-3.8918 0-0.64078 3.1134-1.8476 7.6657-2.9719l7.6657-1.8948 0.95526-5.7276c1.5725-9.4033 1.8673-10.457 2.9208-10.433 0.55036 0.0157 2.7479 2.9366 4.8746 6.4942l3.8722 6.4667 3.8682-0.48745c12.143-1.5292 12.902-1.5567 12.902-0.45209 0 0.6054-1.6511 3.0781-3.6678 5.4918-2.0206 2.4177-4.1631 5.0358-4.7685 5.8142-0.92381 1.199-0.52283 2.5749 2.5552 8.7861 2.0088 4.0491 3.3965 7.6185 3.0781 7.933-0.31449 0.31449-3.5852-0.64078-7.2686-2.1228s-7.2804-2.6889-7.988-2.685c-0.71154 4e-3 -3.5262 2.3272-6.2544 5.1655-4.6466 4.8274-5.8377 5.6805-6.7183 4.7999zm71.456 52.343v-3.0584l-2.0874 2.4137-2.0835 2.4137 1.8712 0.55822c1.026 0.30663 1.9656 0.59754 2.0835 0.64471 0.11792 0.0472 0.2162-1.2894 0.2162-2.9719zm14.046-18.457c0.55429-8e-3 1.5685-0.37346 2.2604-0.80982 1.0771-0.68008 1.026-1.0496-0.34594-2.567-0.8845-0.97493-2.0874-1.773-2.6771-1.773-0.58966 0-1.4978 1.2187-2.0167 2.7086-1.2186 3.4908-1.2029 3.597 0.41277 2.9759 0.75085-0.28697 1.8162-0.52677 2.3665-0.53463zm-148.67-29.444c0.47567-11.664 1.0575-16.495 2.7086-22.576 2.681-9.8632 3.1056-10.976 8.5384-22.364 2.4845-5.2009 5.2874-11.204 6.2269-13.33 1.8162-4.108 4.4776-15.823 4.4776-19.707 0-1.8673 0.63685-2.5945 3.2235-3.7031 1.7769-0.75872 4.8707-1.6432 6.8834-1.9616 2.0088-0.32235 3.6559-0.80588 3.6559-1.085 0-0.27518-0.51891-1.1125-1.1518-1.8594-0.63683-0.74692-2.0285-3.5655-3.0977-6.2702-1.0693-2.7007-2.4884-5.3581-3.1488-5.9085-0.66043-0.55036-1.2068-1.6314-1.2068-2.398-4e-3 -0.77049-0.91203-2.8972-2.0167-4.7213l-2.0088-3.3218-2.6063 4.6112c-1.4349 2.5356-4.4972 6.8716-6.8008 9.6352-4.4265 5.3031-24.912 22.926-26.645 22.926-2.2801 0-1.8948-2.6496 0.74297-5.1144 2.6339-2.4609 2.3115-2.3862-8.4165 2.0049-6.1404 2.5081-12.399 5.2048-13.912 5.9871-3.7975 1.9656-6.278 1.8555-6.278-0.27911 0-1.1479 1.3327-2.4255 4.0845-3.9193 4.5483-2.4648 3.9901-2.394-3.9626 0.49533-4.0687 1.4781-5.8377 1.7533-6.9109 1.085-1.0418-0.65256-3.0899-0.4796-7.4298 0.62505-4.5837 1.1636-5.9321 1.8476-5.7394 2.913 0.14152 0.76657 2.1975 5.6962 4.5719 10.956 2.7675 6.1326 4.0176 9.8593 3.4869 10.39-0.53069 0.53465 0.38132 4.4264 2.5395 10.85 4.45 13.228 8.7114 30.156 8.2278 32.683-0.20834 1.1086 0.11007 4.0137 0.71547 6.451 0.60539 2.4373 1.3366 5.48 1.6236 6.7576 0.4049 1.7887 1.1715 2.4412 3.3139 2.8226 5.311 0.94347 18.311 1.9302 26.987 2.0442l8.7192 0.11793zm156.01 5.936c0.73512-0.88451 0.55428-1.5292-0.75477-2.7164-1.6825-1.5213-1.7179-1.4978-1.7179 1.1597 0 2.8894 0.90023 3.4515 2.4727 1.5567zm-98.801-66.719c6.8598-0.90415 14.408-2.0874 16.774-2.626 8.2475-1.8791 28.056-7.7718 30.675-9.1281 2.5631-1.3248 2.6221-1.4899 2.0678-5.8063-0.31056-2.4412-1.1322-4.8706-1.8201-5.3935-0.68794-0.52677-1.2501-1.3759-1.2501-1.8909s-1.3641-1.9774-3.027-3.2471c-3.0112-2.2958-3.0702-2.3036-9.6784-1.2776-3.656 0.57001-12.261 2.343-19.117 3.9429-6.8598 1.6-15.764 3.3414-19.781 3.8722-4.0215 0.53464-11.428 1.9302-16.452 3.1056l-9.1438 2.1346-0.52284 3.1764c-0.29092 1.7494-0.53071 5.1891-0.53463 7.6461-0.0118 3.6481 0.33806 4.7134 1.8987 5.8063 2.6692 1.8673 14.305 1.7454 29.912-0.3145zm-10.555-25.505c1.8869-0.38131 1.8555-0.51105-1.7022-7.6107-3.2628-6.5178-3.7817-7.135-5.307-6.3213-0.92775 0.49533-2.571 1.14-3.656 1.427l-1.9656 0.52678 3.1095 6.5257c3.3415 7.0092 2.9562 6.789 9.5212 5.4525zm-9.0416-17.411c0.95134-0.38131 1.2265-0.98671 0.77445-1.7179-0.51499-0.82948-1.4742-0.93562-3.5655-0.39312-3.6677 0.95133-4.4343 2.8383-1.1204 2.7557 1.3405-0.0355 3.1017-0.32629 3.9115-0.64472zm-3.0034-6.5099c0.47566-0.47568-4.2496-7.5242-5.9242-8.8332-0.73119-0.57788-2.1503-0.62898-3.9233-0.14939l-2.7754 0.75477 3.2078 4.7803c3.023 4.5169 3.365 4.7567 6.105 4.3203 1.596-0.25553 3.0859-0.64864 3.31-0.87271z" stroke-width="1.0064"/>
</svg>
