<?xml version="1.0" encoding="UTF-8" standalone="no"?>
<!-- Created with Inkscape (http://www.inkscape.org/) -->

<svg
   width="58mm"
   height="54.481098mm"
   viewBox="0 0 58 54.481098"
   version="1.1"
   id="svg5"
   inkscape:version="1.1.2 (0a00cf5339, 2022-02-04)"
   sodipodi:docname="logo-v2026-04.svg"
   inkscape:export-filename="/home/lara/carpinchos/logo/logo-v2026-04.png"
   inkscape:export-xdpi="96"
   inkscape:export-ydpi="96"
   xmlns:inkscape="http://www.inkscape.org/namespaces/inkscape"
   xmlns:sodipodi="http://sodipodi.sourceforge.net/DTD/sodipodi-0.dtd"
   xmlns="http://www.w3.org/2000/svg"
   xmlns:svg="http://www.w3.org/2000/svg">
  <sodipodi:namedview
     id="namedview7"
     pagecolor="#ffffff"
     bordercolor="#666666"
     borderopacity="1.0"
     inkscape:pageshadow="2"
     inkscape:pageopacity="0.0"
     inkscape:pagecheckerboard="0"
     inkscape:document-units="mm"
     showgrid="false"
     inkscape:zoom="2.8284271"
     inkscape:cx="103.59114"
     inkscape:cy="91.747106"
     inkscape:window-width="1920"
     inkscape:window-height="1008"
     inkscape:window-x="0"
     inkscape:window-y="1080"
     inkscape:window-maximized="1"
     inkscape:current-layer="layer14"
     showguides="false"
     fit-margin-top="0"
     fit-margin-left="0"
     fit-margin-right="0"
     fit-margin-bottom="0"
     lock-margins="false" />
  <defs
     id="defs2">
    <inkscape:path-effect
       effect="bend_path"
       id="path-effect28822"
       is_visible="true"
       lpeversion="1"
       bendpath="m 243.57556,239.39528 c 12.24599,0.78837 24.22438,0.64621 36.05783,0"
       prop_scale="1"
       scale_y_rel="false"
       vertical="false"
       hide_knot="false"
       bendpath-nodetypes="cc" />
    <style
       id="style824">
      .cls-1 {
        fill: #fd7408;
      }

      .cls-1, .cls-2, .cls-3, .cls-4, .cls-5, .cls-6, .cls-7, .cls-8, .cls-9, .cls-10, .cls-11, .cls-12, .cls-13, .cls-14, .cls-15, .cls-16, .cls-17, .cls-18, .cls-19, .cls-20, .cls-21, .cls-22, .cls-23, .cls-24 {
        stroke-miterlimit: 11.34;
        stroke-width: .75px;
      }

      .cls-1, .cls-3, .cls-9, .cls-14, .cls-16, .cls-19, .cls-21, .cls-24 {
        stroke: #560400;
      }

      .cls-2 {
        fill: #d8d5d0;
        stroke: #d8d5d0;
      }

      .cls-3, .cls-25 {
        fill: #6d1901;
      }

      .cls-4 {
        fill: #ffa82a;
        stroke: #ffa82a;
      }

      .cls-5 {
        fill: #dc5000;
        stroke: #dc5000;
      }

      .cls-6 {
        fill: #f5f3f6;
        stroke: #f5f3f6;
      }

      .cls-7 {
        fill: #fe7c02;
        stroke: #fe7c02;
      }

      .cls-8 {
        fill: #05a0af;
        stroke: #05a0af;
      }

      .cls-9 {
        fill: #afa5a2;
      }

      .cls-10 {
        fill: #febb00;
        stroke: #febb00;
      }

      .cls-11 {
        fill: #fcfffa;
        stroke: #fcfffa;
      }

      .cls-12 {
        fill: #d9d4d0;
        stroke: #d9d4d0;
      }

      .cls-13 {
        fill: #069baa;
        stroke: #069baa;
      }

      .cls-14 {
        fill: #fa951d;
      }

      .cls-15 {
        fill: #ffa62b;
        stroke: #ffa62b;
      }

      .cls-16 {
        fill: #fc9421;
      }

      .cls-17 {
        fill: #fea92d;
        stroke: #fea92d;
      }

      .cls-18 {
        fill: #e05102;
        stroke: #e05102;
      }

      .cls-19 {
        fill: #c2c8c1;
      }

      .cls-20 {
        fill: #c44203;
        stroke: #c44203;
      }

      .cls-21 {
        fill: #05bed3;
      }

      .cls-22 {
        fill: #65ccd9;
        stroke: #65ccd9;
      }

      .cls-23 {
        fill: #fbfafd;
        stroke: #fbfafd;
      }

      .cls-24 {
        fill: #dc4d05;
      }
    </style>
    <inkscape:path-effect
       effect="spiro"
       id="path-effect33314"
       is_visible="true"
       lpeversion="1" />
    <inkscape:path-effect
       effect="bend_path"
       id="path-effect28822-0"
       is_visible="true"
       lpeversion="1"
       bendpath="m 243.57556,239.39528 h 36.05783"
       prop_scale="1"
       scale_y_rel="false"
       vertical="false"
       hide_knot="false" />
    <inkscape:path-effect
       effect="bend_path"
       id="path-effect28822-1"
       is_visible="true"
       lpeversion="1"
       bendpath="m 243.57556,239.39528 c 12.24599,0.78837 24.22438,0.64621 36.05783,0"
       prop_scale="1"
       scale_y_rel="false"
       vertical="false"
       hide_knot="false"
       bendpath-nodetypes="cc" />
    <inkscape:path-effect
       effect="bend_path"
       id="path-effect28822-1-0"
       is_visible="true"
       lpeversion="1"
       bendpath="m 243.57556,239.39528 c 12.24599,0.78837 24.22438,0.64621 36.05783,0"
       prop_scale="1"
       scale_y_rel="false"
       vertical="false"
       hide_knot="false"
       bendpath-nodetypes="cc" />
    <inkscape:path-effect
       effect="bend_path"
       id="path-effect28822-2"
       is_visible="true"
       lpeversion="1"
       bendpath="m 243.57556,239.39528 c 12.24599,0.78837 24.22438,0.64621 36.05783,0"
       prop_scale="1"
       scale_y_rel="false"
       vertical="false"
       hide_knot="false"
       bendpath-nodetypes="cc" />
    <inkscape:path-effect
       effect="bend_path"
       id="path-effect28822-2-3"
       is_visible="true"
       lpeversion="1"
       bendpath="m 243.57556,239.39528 c 12.24599,0.78837 24.22438,0.64621 36.05783,0"
       prop_scale="1"
       scale_y_rel="false"
       vertical="false"
       hide_knot="false"
       bendpath-nodetypes="cc" />
    <inkscape:path-effect
       effect="bend_path"
       id="path-effect28822-2-3-0"
       is_visible="true"
       lpeversion="1"
       bendpath="m 243.57556,239.39528 c 12.24599,0.78837 24.22438,0.64621 36.05783,0"
       prop_scale="1"
       scale_y_rel="false"
       vertical="false"
       hide_knot="false"
       bendpath-nodetypes="cc" />
    <inkscape:path-effect
       effect="bend_path"
       id="path-effect28822-2-3-9"
       is_visible="true"
       lpeversion="1"
       bendpath="m 243.57556,239.39528 c 12.24599,0.78837 24.22438,0.64621 36.05783,0"
       prop_scale="1"
       scale_y_rel="false"
       vertical="false"
       hide_knot="false"
       bendpath-nodetypes="cc" />
  </defs>
  <g
     inkscape:groupmode="layer"
     id="layer14"
     inkscape:label="logo"
     style="display:inline"
     transform="translate(-146.13283,-217.49649)">
    <g
       id="g1494"
       transform="matrix(0.68104239,0,0,0.68104239,8.90393,55.349836)">
      <path
         id="path1856-8-2-7-6"
         style="display:inline;fill:#37aecc;fill-opacity:1;stroke:none;stroke-width:0.28471;stroke-linecap:square;paint-order:markers fill stroke"
         d="m 245.17078,243.39207 a 37.914688,37.914688 0 0 0 -38.29327,35.23456 37.914688,37.914688 0 0 0 19.9869,36.12387 h 35.65673 a 37.914688,37.914688 0 0 0 19.99619,-30.77022 37.914688,37.914688 0 0 0 -35.14307,-40.49674 37.914688,37.914688 0 0 0 -2.20348,-0.0915 z" />
      <g
         id="layer4-5-6-6-6"
         transform="matrix(0.11225363,0,0,0.11225363,201.49879,238.086)"
         style="display:inline">
        <path
           id="path35886-8-3-5-4"
           class="cls-3"
           d="m 138.51,90.86 c 0,0 -3.78,-1.93 -6.22,-5.78 -1.76,-2.77 -2.21,-6.29 -2.39,-8.75 -0.46,-6.1 2.26,-12.15 6.51,-16.55 19.59,-20.29 49.3,-28.86 77.92,-33.77 17.55,-3.01 54.13,-0.66 54.13,-0.66 0,0 0.46,-3.08 1.88,-4.27 2.68,-2.26 7.73,-4.23 14.56,-5.35 9.39,-1.53 32.84,-1.18 32.84,-1.18 0,0 0.12,-3.19 1.19,-4.56 2.91,-3.71 8.63,-5.45 13.23,-6.48 23.36,-5.23 51.3,-3.2 74.68,0.89 39.66,6.94 75.15,22.82 110.29,39.97 37.62,18.36 90,50.43 105.61,66.53 3.1,3.2 6.08,16.95 6.08,24.91 0,17.82 -2.18,24.86 -6.39,35.93 -3.57,9.4 -8.45,20.66 -15.54,31.37 -8.68,13.11 -19.86,24.77 -19.86,24.77 0,0 10.54,11.27 14.12,17.8 3.87,7.04 8.2,22.65 8.2,22.65 0,0 40.77,-12.21 60.06,-6.42 4.88,1.46 9.28,4.92 11.73,9.39 2.58,4.69 1.84,16.61 1.84,16.61 15.73,4.39 28.13,14.31 38.83,27.81 10.44,13.17 21.77,36.04 22.28,63.32 0,0 5.87,0.9 7.81,2.4 1.73,1.34 4.71,4.57 5.73,7.56 1.29,3.77 0.42,8.65 -0.41,12.49 -1,4.64 -5.36,11.78 -5.36,11.78 0,0 3.54,5.34 3.33,10.84 -0.2,4.99 -3.75,11.17 -7.16,14.83 -4.09,4.39 -14.28,5.97 -14.28,5.97 0,0 -10.49,20.89 -25.25,32.53 -10.78,8.51 -25.57,17.38 -39.49,21.1 -25.07,6.69 -31.36,4.72 -47.16,4.77 -16.64,0.05 -46.75,-11.38 -46.75,-11.38 0,0 -34.78,-1.72 -51.19,3.07 -31.49,9.18 -45.92,19.11 -59.51,30.9 -4.39,3.81 -7.26,10.17 -10.19,13.2 -2.05,2.12 -8.71,3.17 -9.67,4.69 -4.21,6.69 -11.7,19.7 -19.47,28.79 -11.77,13.77 -25.89,22.32 -25.89,22.32 l -1.89,54.36 c 0,0 129.65,1.88 190.53,8.88 29.38,3.38 63.01,8.05 81.47,16.36 5.24,2.36 14.21,8.26 -0.55,14.42 -27,11.27 -94.26,15.55 -94.26,15.55 0,0 -129.92,7.52 -194.96,7.78 C 319.83,712.49 258.54,710.16 198,704.99 148.19,700.74 74.32,691.43 53.4,683.35 41.39,678.71 35.23,671.03 48.74,665.9 c 0,0 17.83,-5.93 27.63,-7.62 9.61,-1.66 29.41,-3.24 29.41,-3.24 0,0 -24.84,-16.51 -35.59,-26.66 C 62.37,621 55.7,612.98 49.74,604.08 44.17,595.29 39.47,584.1 35.79,574.89 c 0,0 -2.83,1.89 -7.53,0.76 -2.82,-0.67 -6.63,-8.43 -9.01,-14.72 -5.6,-14.78 -5.53,-45.13 -5.53,-45.13 0,0 -6.49,0.26 -9.02,-2.25 -5.13,-5.08 -4.42,-13.8 -4.11,-21.08 0.8,-18.58 11.07,-39.1 11.07,-39.1 0,0 -5.98,-3.94 -7.15,-8.08 -3.15,-11.2 1.68,-19.19 6.19,-27.08 3.91,-6.86 15.04,-17.68 15.04,-17.68 0,0 -3.82,-3.75 -3.97,-8.83 -0.22,-7.31 2.24,-12.11 9.42,-20.5 7.18,-8.39 43.33,-35.69 43.33,-35.69 0,0 -2.33,-1.25 -3.06,-3.82 -1.21,-4.3 4.4,-11.73 9.21,-16.46 7.46,-7.32 16.17,-14.45 20.29,-17.58 12.35,-9.37 24.11,-16.59 34.43,-27.56 8.91,-9.46 22.74,-31.5 22.74,-31.5 l 20.99,-39.84 c 0,0 -6.72,-7.33 -7.73,-11.97 -1.23,-5.61 1.65,-15.11 2.45,-17.06 2.23,-5.48 15.33,-21.97 15.33,-21.97 0,0 -15.74,-5.85 -22.09,-9.74 -7.56,-4.64 -13.66,-9.66 -18.82,-16.11 -3.99,-4.99 -6.27,-10.22 -7.99,-16.38 -1.26,-4.53 -1.79,-14.67 -1.79,-14.67 v 0 z" />
      </g>
      <path
         id="path138177-5-6-0-7"
         class="cls-19"
         d="m 265.56306,273.09792 c -1.0709,0.0325 -0.99906,-1.02712 -0.82956,-1.41664 0.25482,-0.58821 1.37174,-1.2202 2.0071,-1.30102 2.82879,-0.35697 5.21979,-1.24714 7.75448,-1.56931 0.78465,-0.0999 1.70513,-0.0123 2.07894,0.58821 0.2593,0.41534 0.19532,1.02039 -0.12236,1.24265 -0.66117,0.46248 -3.00727,1.25612 -3.68304,1.42562 -3.02748,0.75883 -3.66284,0.92385 -7.20556,1.03161 z"
         style="display:inline;fill:#c2c8c1;stroke:none;stroke-width:0.75px;stroke-miterlimit:11.34" />
      <path
         id="path178325-6-3-8-4"
         class="cls-9"
         d="m 263.92416,264.62389 c 0,0 0.64994,-0.53657 1.23254,-0.39289 1.23142,0.30309 1.79269,1.18203 2.32477,1.93975 0.74874,1.06528 0.92722,2.48417 0.92722,2.48417 0,0 -0.49392,0.0135 -0.69485,0.0539 -0.26716,0.0528 -0.72516,0.24022 -0.72516,0.24022 0,0 -0.42993,-1.77473 -1.3897,-2.89053 -0.65444,-0.75996 -1.67595,-1.43572 -1.67595,-1.43572 v 0 z"
         style="display:inline;fill:#afa5a2;stroke:none;stroke-width:0.75px;stroke-miterlimit:11.34" />
      <g
         id="layer6-3-3-1-8"
         transform="matrix(0.11225363,0,0,0.11225363,201.49879,238.086)"
         style="display:inline;fill:#37aecc;fill-opacity:1">
        <path
           id="path108501-8-4-2-5"
           class="cls-13"
           d="m 565.27,263.14 c 0,0 2.71,4.58 3.75,6.91 0.99,2.22 2.34,6.75 2.34,6.75 0,0 -15.73,3.82 -21.39,18.27 -3.8,9.7 -0.05,19.3 -0.05,19.3 0,0 -12.99,11.77 -23.45,34.81 -7.89,17.38 -9.11,43.78 -9.11,43.78 0,0 -14.23,-3.77 -21.85,-5.63 -6.09,-1.48 -18.17,-3.89 -18.17,-3.89 0,0 -3.18,-15.7 -5.57,-22.4 -2.28,-6.41 -8.29,-16.81 -8.29,-16.81 0,0 3.02,-2.49 3.51,-4.71 1.53,-7.01 -5.45,-18.87 -9.67,-26.44 -3.48,-6.23 -11.27,-17.12 -11.27,-17.12 0,0 4.31,-1.16 7.27,-1.61 2.2,-0.33 8.9,-0.82 8.9,-0.82 0,0 -2.51,10.11 4.18,10.86 20.54,2.29 41.76,-8.61 41.76,-8.61 0,0 0.88,6.76 7.67,6.37 19.03,-1.09 49.45,-39.01 49.45,-39.01 v 0 z"
           style="fill:#37aecc;fill-opacity:1" />
      </g>
      <g
         id="layer5-7-4-2-8"
         transform="matrix(0.11225363,0,0,0.11225363,201.49879,238.086)"
         style="display:inline">
        <path
           id="path75800-5-39-6-2"
           class="cls-24"
           d="m 154.44,74.63 c 0,0 -5.54,0.65 -6.45,-1.29 -0.63,-1.35 0.99,-2.95 2.1,-3.94 19.09,-16.98 48.43,-25.7 71.37,-27.91 27.73,-2.68 87.1,-0.31 87.1,-0.31 0,0 -3.71,-3.33 -5.86,-4.81 -2.34,-1.61 -7.57,-3.69 -7.57,-3.69 0,0 7.05,-3.35 23.42,-3.76 12.86,-0.32 38.59,0.51 38.59,0.51 0,0 -5.67,-4.19 -8.38,-5.81 -3.35,-2 -9.69,-4.79 -9.69,-4.79 0,0 15.82,-2.38 27.43,-2.65 9.86,-0.22 34.64,3.03 44.27,5.13 41.83,9.09 61.01,20.27 114.46,46.5 54.5,26.75 84.83,52 84.83,52 0,0 4.92,26.48 -2.47,45.7 -3.33,8.66 -10.53,24.04 -17.52,34.11 -14.26,20.52 -22.24,21.92 -22.24,21.92 0,0 2.83,-6.08 3.97,-9.84 1.51,-4.99 1.22,-14.58 1.22,-14.58 0,0 -5.3,10.08 -8.72,14.6 -3.69,4.87 -9.82,11.98 -17.32,16.34 -10.31,6 -34.07,10.96 -34.07,10.96 0,0 15.87,3.73 25.95,3.57 l 12.91,-0.21 c 0,0 -5.53,13.28 -10.3,21.21 -3.75,6.24 -15.68,18.24 -15.68,18.24 0,0 1.85,-5.98 2.37,-9.26 0.46,-2.86 1.24,-9.42 1.24,-9.42 0,0 -12.65,12.54 -19.83,16.89 -12.13,7.35 -32.23,11.71 -32.23,11.71 0,0 6.33,-7.64 8.71,-10.52 5.84,-7.08 6.04,-14.42 6.04,-14.42 0,0 -19.23,12.03 -39.31,15.35 -20.24,3.35 -27.44,-1.61 -27.44,-1.61 0,0 6.47,-2.99 9.95,-6.39 2.28,-2.23 3.84,-6.73 3.84,-6.73 0,0 -19.48,2.33 -29.19,2.76 -15.65,0.7 -31.16,-1.41 -31.16,-1.41 0,0 4.97,-2.45 9.77,-6.96 1.98,-1.86 4.03,-5.82 4.03,-5.82 0,0 -22.15,-0.04 -31.72,-1.18 -12.04,-1.42 -34.39,-5.15 -34.39,-5.15 0,0 8.87,9.17 14.73,11.89 5.95,2.76 17.12,5.98 17.12,5.98 0,0 -2.77,4.86 -1.78,7.18 1,2.35 3.82,3.59 6.21,4.5 14.64,5.58 46.76,4.7 46.76,4.7 0,0 15.4,14.25 22.24,21.85 7.57,8.41 16.98,25.84 16.98,25.84 0,0 -5.36,-2.91 -7.83,-3.56 -2.8,-0.74 -7.98,-0.6 -7.98,-0.6 0,0 12.19,17.42 17.08,26.82 3.77,7.25 9.38,22.67 9.38,22.67 l -18.97,-5.41 c 0,0 12.61,20.35 16.69,30.97 3.43,8.92 6.33,26.77 6.33,26.77 0,0 -2.98,-1.91 -4.84,-3.07 -1.97,-1.23 -6.65,-4.08 -6.65,-4.08 0,0 14.78,29.44 9.87,58.75 -3.05,18.17 -10.11,32.31 -10.11,32.31 0,0 -1.31,-10.16 -2.8,-14.94 -1.69,-5.43 -6.91,-15.24 -6.91,-15.24 0,0 -5.87,29.4 -12.55,42.15 -10.44,19.94 -26.96,31.17 -26.96,31.17 0,0 2.71,-29.04 4.28,-43.43 2.53,-23.22 -0.75,-57 -0.75,-57 0,0 -5.83,16.12 -10.96,37.57 -2.96,12.38 -5.04,26.96 -7.34,40.14 -4.15,23.76 -5.28,54.34 -5.63,76.55 -0.53,33.41 2.29,44.92 4.36,52.15 2.41,8.42 13.31,21.21 13.31,21.21 0,0 -9.51,-2.48 -13.26,-3.34 -3.69,-0.85 -8.52,-1.31 -8.52,-1.31 0,0 0.16,4.3 0.42,6.46 0.35,2.9 1.09,8.09 1.09,8.09 0,0 -9.93,-4.62 -14.35,-7.6 -3.71,-2.51 -10.08,-8.61 -10.08,-8.61 l -14.77,8.9 c -4.61,2.78 -15.6,4.4 -15.6,4.4 0,0 6.12,-17.57 6.63,-26.74 2.56,-46.22 -16.22,-114.24 -16.22,-114.24 0,0 -2.54,4.6 -3.55,6.99 -0.93,2.19 -2.1,7.49 -2.1,7.49 0,0 -3.43,-15.95 -4.88,-24.29 -1.55,-8.93 -4.11,-27.52 -4.11,-27.52 0,0 -2.42,3.25 -3.67,5.26 -1.26,2.03 -3.55,7.08 -3.55,7.08 0,0 -3.15,-25.38 -1.49,-39.54 1.69,-14.48 11.41,-39.93 11.41,-39.93 0,0 -12.11,12.77 -16.97,23.06 -4,8.46 -6.95,19.45 -8.08,28.74 -2.42,19.92 1.51,32.7 7.4,47.2 3.57,8.8 10.87,5.54 10.87,5.54 0,0 1.76,15.6 3.99,22.97 2.84,9.4 5.99,19.73 5.89,19.49 0,0 -16.27,10.54 -27.75,13.43 -12.17,3.07 -34.38,5.66 -34.38,5.66 0,0 8.7,-8.92 12.3,-14.01 3.83,-5.42 7.52,-11.26 9.55,-17.71 3.73,-11.92 2.62,-30.78 2.62,-30.78 2.41,-2.11 5.19,-4.92 5.61,-10.09 0.36,-4.45 0.43,-29.17 -12.99,-46.42 -7.14,-9.18 -16.1,-17.95 -26.94,-22.15 -18.13,-7.03 -42.42,-3.93 -42.42,-3.93 0,0 25.67,8.13 37.64,17.71 20.97,16.8 24.87,36.28 24.87,36.28 0,0 -6.75,-4.36 -10.03,-5.94 -3.01,-1.45 -8.78,-3.2 -8.78,-3.2 0,0 12.46,22.23 12.79,36.22 0.37,15.62 -2.78,29.24 -11.92,43.44 -6.81,10.58 -30.66,26.29 -46.92,29.52 -37.88,7.53 -55.82,-2.13 -55.82,-2.13 0,0 10.85,13.32 19.78,16.55 11.64,4.22 32,3.21 37.08,1.96 17.18,-4.25 30.84,-1.3 37.37,2.01 7.3,3.7 11.93,8.26 16.24,14.13 2.72,3.7 6.41,13.03 6.41,13.03 0,0 -11.21,-7.74 -16.56,-10.86 -5.6,-3.27 -16.71,-8.23 -16.71,-8.23 0,0 7.99,7.22 12.15,12.8 3.99,5.35 7.82,15.93 7.82,15.93 0,0 -15.03,-9.34 -22.07,-12.88 -7.26,-3.66 -20.82,-8.73 -20.82,-8.73 0,0 5.78,7.92 8.16,11.88 2.29,3.8 5.84,11.41 5.84,11.41 0,0 -26.2,-6.64 -38.62,-11.82 C 153.5,658.36 137.29,650.73 123.23,640.13 108.27,628.85 98.55,618.38 88.17,606 81.13,597.61 70.63,579.13 70.63,579.13 c 0,0 0.32,9.43 1.21,13.77 0.92,4.48 3.48,13.06 3.48,13.06 0,0 -8.99,-12.14 -12.68,-18.7 -3.45,-6.14 -6.36,-13.31 -8.58,-20 -4.18,-12.55 -9.41,-38.5 -9.41,-38.5 0,0 -4.1,4.18 -5.53,6.72 -1.95,3.47 -4.41,11.78 -4.41,11.78 -4.86,-15.92 -6.43,-21.49 -6.42,-42.41 0.45,-11.72 2.08,-23.03 2.08,-23.03 0,0 -4.43,3.08 -6.52,5 -1.91,1.76 -5.97,6.05 -5.97,6.05 0,0 4.4,-23.6 8.99,-34.43 7.51,-17.7 26.39,-39.97 26.39,-39.97 0,0 -12.39,5.52 -17.12,8.34 -5.4,3.22 -14.26,10.31 -14.26,10.31 0,0 6.51,-14.22 11.73,-21.63 9.76,-13.87 16.27,-19.23 25.08,-27.48 5.71,-5.35 18.22,-13.95 18.22,-13.95 0,0 -9.69,1.35 -15.51,2.74 -4.97,1.19 -16.85,4.98 -16.85,4.98 0,0 18.22,-16.33 38.03,-31.39 16.2,-12.32 43.38,-31.13 43.38,-31.13 0,0 -8.97,1.28 -13.94,2.93 -3.85,1.28 -16.31,2.1 -16.31,2.1 0,0 36.26,-26.69 48.38,-40.16 20.83,-23.14 30.21,-37.91 44.87,-65.39 7.57,-14.19 19.55,-43.55 19.55,-43.55 0,0 -3.89,1.13 -6,2.09 -2.22,1.01 -8.25,4.08 -8.25,4.08 0,0 8.15,-15.36 14.49,-23 9.6,-11.57 29.13,-22.17 29.13,-22.17 0,0 -29.24,6.4 -63.43,-14.36 -8.9,-5.4 -17.47,-18.66 -19,-27.19 -1.51,-8.43 -1,-19.99 -1,-19.99 v 0 z" />
        <path
           id="path190775-2-7-9-6"
           class="cls-1"
           d="m 477.72,401.52 40.04,9.95 c 0,0 4.27,23.22 9.91,34.04 5.23,10.03 21.65,27.58 21.65,27.58 0,0 -25.52,3.05 -36.62,6.35 -13.81,4.11 -36.78,16.91 -36.78,16.91 0,0 1.5,-13.4 1.13,-20.1 -0.41,-7.48 -3.72,-22.17 -3.72,-22.17 0,0 4,-0.32 5.17,-1.71 5.05,-6.01 3.48,-15.45 3.46,-23.31 -0.02,-9.29 -4.22,-27.55 -4.22,-27.55 v 0 z" />
        <path
           id="path217920-4-2-1-0"
           class="cls-16"
           d="m 734.36,399.65 c 1.51,-2.9 5.09,-7.02 8.05,-5.62 2,0.94 0.84,4.42 0.53,6.61 -0.28,2.01 -0.37,4.73 -2.16,5.69 -1.94,1.04 -5.06,0.25 -6.43,-1.47 -1.08,-1.36 -0.8,-3.67 0,-5.21 z" />
        <path
           id="path217920-5-50-5-0-6"
           class="cls-14"
           d="m 729.96,424.36 c 0.89,-3.15 3.55,-7.91 6.74,-7.15 2.15,0.51 1.73,4.16 1.87,6.37 0.13,2.02 0.61,4.71 -0.95,6.01 -1.69,1.41 -4.9,1.27 -6.59,-0.13 -1.34,-1.11 -1.53,-3.43 -1.06,-5.1 v 0 z" />
      </g>
      <g
         id="layer13-5-89-4-6"
         transform="matrix(0.11225363,0,0,0.11225363,201.49879,238.086)"
         style="display:inline">
        <path
           id="path308526-7-0-2-4"
           class="cls-7"
           d="m 232.86,466.64 c 0,0 -15.67,-2.36 -23.89,-2.27 -6.26,0.07 -19.04,1.85 -19.04,1.85 0,0 26.65,7 42.42,19.86 16.42,13.38 21.5,33.98 21.5,33.98 0,0 -7.01,-5.78 -11.07,-7.74 -2.46,-1.19 -7.86,-2.34 -7.86,-2.34 0,0 9.52,20.07 11.79,31.31 1.26,6.26 0.73,19.14 0.73,19.14 l -4.98,-4.95 c 0,0 -2.06,13.13 -6.64,17.24 -14.82,13.28 -37.89,17 -57.7,15.24 -17.23,-1.53 -33.58,-11.04 -47.05,-21.89 -4.69,-3.78 -10.94,-14.38 -10.94,-14.38 l 20.76,5.23 c 0,0 -19.01,-20.08 -24.5,-32.49 -6.05,-13.66 -8.35,-44.02 -8.35,-44.02 l -13.85,35.18 c 0,0 -7.05,-21.68 -7.22,-32.91 -0.15,-10.18 2.32,-20.39 5.66,-30.01 3.05,-8.79 12.95,-24.75 12.95,-24.75 0,0 -12.15,5.98 -17.91,9.51 -6.1,3.74 -17.58,12.32 -17.58,12.32 0,0 4.2,-18.69 9.04,-26.76 7.11,-11.85 28.42,-30.18 28.42,-30.18 0,0 -15.23,1.36 -22.37,3.88 -9.77,3.45 -27.17,15.08 -27.17,15.08 0,0 15.07,-23.65 24.48,-33.96 11.23,-12.3 37.73,-32.77 37.73,-32.77 l -24.34,3.74 c 0,0 12.42,-10.68 18.62,-16.02 5.59,-4.81 16.77,-14.43 16.77,-14.43 l -6.35,0.22 c 0,0 29.36,-26.8 41.33,-42.53 13.84,-18.18 24.48,-38.69 34.66,-59.15 5.05,-10.15 8.68,-20.94 13.05,-31.4 3.07,-7.35 9.26,-22.03 9.26,-22.03 l -18.02,6.86 c 0,0 7.18,-13.76 12.61,-19.13 6.39,-6.32 22.67,-14.59 22.67,-14.59 0,0 -6.62,-2.35 -9.96,-3.43 -6.6,-2.13 -13.46,-3.48 -19.92,-6.01 -16.8,-6.57 -35.62,-11.2 -48.66,-23.67 -2.67,-2.56 -4.27,-6.2 -5.29,-9.75 -1.89,-6.53 -1.32,-20.34 -1.32,-20.34 0,0 38.46,-20.98 67.27,-22.88 27.25,-1.79 79.99,0.47 79.99,0.47 l 18.24,1.3 c 0,0 -1.21,-4.53 -1.82,-6.8 -0.53,-1.97 -2.37,-5.92 -2.37,-5.92 0,0 18.67,-1.08 28.83,-1.18 8.27,-0.08 26.48,0.63 26.48,0.63 0,0 -0.6,-3.31 -1.03,-4.87 -0.64,-2.29 -3.78,-5.44 -3.78,-5.44 0,0 27.12,0.99 40.19,3.68 16.04,3.3 31.85,8.28 47.14,14.28 24.26,9.52 47.15,21.55 70.27,33.24 16.24,8.21 32.46,16.86 48.06,25.92 12.56,7.3 32.09,15.6 36.59,23.69 3.51,6.32 0.89,23.2 0.89,23.2 0,0 -3.17,-3.78 -4.19,-5.26 -1.46,-2.12 -3.24,-5.53 -3.24,-5.53 0,0 -2.57,19.65 -6.04,28.1 -3.23,7.87 -7.82,14.89 -12.88,21.23 -2.03,2.55 -10.2,15.38 -10.2,15.38 0,0 0.33,-3.74 0.2,-5.61 -0.14,-1.96 -1.02,-5.82 -1.02,-5.82 0,0 -3.19,6.72 -6.02,8.94 -37.07,29.21 -71.76,30.63 -71.76,30.63 l 6.25,2.41 c 0,0 13.99,3.54 21.69,4.81 3.99,0.66 13.17,1.72 13.17,1.72 0,0 -7.15,10.17 -11.84,14.15 -5.57,4.72 -12.29,8.65 -18.27,12.84 -2.09,1.46 -6.49,3.16 -6.49,3.16 0,0 2.28,-7.8 3.51,-12.2 1.11,-3.99 2.71,-12.62 2.71,-12.62 0,0 -17.33,12.7 -26.48,16.27 -10.82,4.23 -34.73,7.93 -34.73,7.93 0,0 2.64,-4.84 3.96,-7.26 1.59,-2.92 4.77,-8.75 4.77,-8.75 0,0 -14.83,2.17 -22.35,2.62 -10.02,0.61 -30.27,0.59 -30.27,0.59 0,0 4.46,-3.28 6.7,-5.22 2.16,-1.88 6.91,-7.65 6.91,-7.65 0,0 -27.65,0.13 -41.47,-0.22 -16.46,-0.42 -49.34,-2.23 -49.34,-2.23 0,0 2.42,3.77 3.16,4.93 2.08,3.24 4.65,4.81 7.31,6.81 6.71,5.03 22.97,10.63 22.97,10.63 0,0 -2.18,5.33 -0.43,8.52 2.65,4.85 11.76,5.1 11.76,5.1 0,0 31.05,22.56 50.18,34.34 16.2,9.97 13.48,12.94 22.23,24.58 9.65,12.83 13.32,25.16 12.87,24.78 0,0 -6.64,0.14 -9.98,-0.2 -3.12,-0.31 -10.73,-2.3 -10.73,-2.3 0,0 9.91,13.67 13.95,21.06 4.61,8.43 11.62,26.36 11.62,26.36 0,0 -6.24,-0.21 -8.84,-0.46 -3.35,-0.32 -9.02,-1.27 -9.02,-1.27 0,0 8.43,27.43 9.68,41.45 0.86,9.67 -1.73,28.87 -1.73,28.87 0,0 -5.17,-9.23 -8.35,-13.66 -3.06,-4.28 -8.85,-11.98 -8.85,-11.98 0,0 -0.6,21.37 -2.47,31.12 -1.92,9.98 -8.9,28.08 -8.9,28.08 0,0 -6.91,-27.02 -10.44,-40.51 -1.35,-5.14 -4.09,-15.41 -4.09,-15.41 0,0 -11.04,37.84 -14.56,56.38 -3.9,20.54 -6.63,40.27 -8.37,60.59 -1.08,12.67 -1.02,25.48 -0.87,38.23 0.12,10.1 -0.45,20.44 0.45,30.61 0.72,8.17 2.61,16.11 5.2,23.9 1,3.01 2.62,5.93 4.21,8.25 2.58,3.76 8.86,9.99 8.86,9.99 l -11.84,-2.79 -11.4,-2.94 c 0,0 0.59,3.78 0.72,6.08 0.13,2.44 1.55,8.22 1.55,8.22 0,0 -8.41,-3.51 -12.34,-6.17 -4.23,-2.87 -12.14,-10.42 -12.14,-10.42 l -6.86,4.85 c 0,0 -3.28,-31.43 -5.77,-47.03 -2.79,-17.54 -6.64,-34.89 -10.27,-52.28 -2.52,-12.07 -6.86,-23.84 -7.97,-36.12 -0.92,-10.14 1.12,-30.51 1.12,-30.51 l -11.8,16.27 c 0,0 -3.01,-15.39 -2.94,-23.18 0.11,-11.44 4.98,-33.95 4.98,-33.95 l -15.41,12.82 c 0,0 -1.17,-22.65 1.13,-33.63 0.63,-3 2.66,-9.42 2.66,-9.42 0,0 -11.53,12.77 -15.18,18.48 -8.77,13.75 -11.46,39.53 -11.46,39.53 0,0 -6.18,-13.86 -11.22,-19.37 -10.13,-11.09 -36.79,-26.03 -36.79,-26.03 0,0 1.09,3.83 1.76,5.7 0.57,1.58 1.91,4.64 1.91,4.64" />
      </g>
      <g
         id="layer11-3-2-7-6"
         transform="matrix(0.11225363,0,0,0.11225363,201.49879,238.086)"
         style="display:inline">
        <path
           id="path196954-2-4-4-2"
           class="cls-3"
           d="m 322.6,69.03 c 27.73,14.06 56.14,22.31 83.35,32.51 2.39,0.9 5.22,4.62 4.94,7.43 -0.21,2.1 -1.91,4.4 -3.83,5.27 -2.71,1.22 -9.44,0.93 -9.44,0.93 0,0 1.49,6.11 -1.1,9.92 -4.11,6.03 -36.44,-3.01 -48.52,-3.52 -14.84,-0.63 -32.61,-0.27 -32.61,-0.27 0,0 5.53,-4.72 8.85,-6.05 3.74,-1.5 11.93,-1.99 11.93,-1.99 0,0 -2.7,-6.69 -3.05,-10.23 -0.4,-4.05 1.91,-11.52 1.91,-11.52 0,0 -6.07,-0.71 -13.99,-7.77 -2.66,-2.37 -6.46,-5.22 -6.79,-8.77 -0.46,-4.81 5.26,-7.5 8.34,-5.94 v 0 z" />
        <path
           id="path199954-7-76-0-8"
           class="cls-3"
           d="m 576.64,127.95 c 5.02,-1.5 9.28,-0.68 15.05,1.21 2.97,0.97 6.17,3.09 7.31,5.99 0.91,2.33 1.15,5.44 -0.79,7.02 -3.88,3.15 -10.9,1.91 -15.12,0.86 -5.85,-1.47 -9.85,-5.59 -10.1,-10.42 -0.1,-1.97 1.77,-4.09 3.66,-4.65 v 0 z" />
        <path
           id="path235944-2-5-3-9"
           class="cls-3"
           d="m 271.76,68.45 c 0,0 0.54,5.41 -0.53,7.17 -3.28,5.39 -14.55,8.42 -19.66,12.11 -5.29,3.82 -11.11,11.5 -11.11,11.5 l 19.91,-0.83 c 0,0 -9.89,13.06 -21.21,17.64 -12.79,5.18 -26.34,4.56 -38.84,0.81 -8.55,-2.56 -15.62,-8.22 -22.26,-15.26 -3.11,-3.29 -6.25,-7.6 -5.66,-12.34 0.65,-5.24 5.23,-9.23 9.64,-12.12 9.77,-6.39 33.32,-11.29 44.89,-12.8 18.69,-2.44 44.83,4.11 44.83,4.11 v 0 z" />
      </g>
      <g
         id="layer12-1-7-2-6"
         transform="matrix(0.11225363,0,0,0.11225363,201.49879,238.086)"
         style="display:inline">
        <path
           id="path247738-3-1-8-0"
           class="cls-5"
           d="m 173.48,87.72 c 0,0 19,-5.55 29.29,-6.08 29.75,-1.52 33.29,2.52 33.29,2.52 0,0 -4.69,3.29 -10.81,7.09 -3.9,2.43 -6.43,4.12 -6.27,7.12 0.18,3.56 12.79,4.83 12.79,4.83 0,0 -9.82,5.86 -14.69,6.2 -14.82,1.03 -18.23,0.72 -31.35,-3.01 -4.28,-1.22 -6.44,-4.88 -10.37,-9.53 -3.23,-3.83 -1.88,-9.14 -1.88,-9.14 z" />
        <path
           id="path190775-6-4-33-0-7"
           class="cls-18"
           d="m 519.72,424.01 c 0,0 1.64,10.62 7.28,21.44 5.23,10.03 20.88,27.17 20.88,27.17 0,0 -23.78,2.5 -34.89,5.81 -13.81,4.11 -36,16.49 -36,16.49 0,0 1.24,-12.99 0.87,-19.7 -0.41,-7.48 -3.4,-20.67 -3.4,-20.67 0,0 4.31,-0.11 5.17,-1.71 4.4,-8.21 3.31,-14.88 2.95,-22.6 -0.47,-9.97 -0.57,-10.13 -0.57,-10.13 10.28,-1.43 26.54,2.46 37.73,3.9 z" />
      </g>
      <g
         id="g247703-7-3-3-0"
         transform="matrix(0.11225363,0,0,0.11225363,201.49879,238.086)"
         style="display:inline">
        <path
           id="path190775-6-2-4-8-7-1"
           class="cls-20"
           d="m 539.27,463.33 8.61,9.29 c 0,0 -23.78,2.5 -34.89,5.81 -13.81,4.11 -36,16.49 -36,16.49 0,0 1.24,-12.99 0.87,-19.7 -0.41,-7.48 -1.84,-16.66 -1.84,-16.66 10.76,2.8 45.43,9.53 63.25,4.77 z" />
      </g>
      <g
         id="layer10-1-5-0-0"
         transform="matrix(0.11225363,0,0,0.11225363,201.49879,238.086)"
         style="display:inline">
        <path
           id="path138177-3-2-1-0-1"
           class="cls-23"
           d="m 564.95,298.32 c 3.15,-5.01 10.45,-9.23 16.11,-9.94 25.2,-3.18 45.63,-11.11 68.24,-13.74 16.2,-1.88 18.7,5 18.7,5 0,0 -24.61,5.61 -31.53,6.82 -21.01,3.05 -71.96,14.63 -71.52,11.87 z"
           style="stroke:#fcfafe;stroke-opacity:1" />
        <path
           id="path178325-5-2-08-3-3"
           class="cls-6"
           d="m 557.79,236.13 c 0,0 4.19,-3.73 9.38,-2.45 10.97,2.7 15.22,9.76 20.1,16.51 6.8,9.4 7.9,21.5 7.9,21.5 -3.42,-0.35 -4.13,1.14 -5.33,-3.45 0,0 -6.57,-15.02 -15.13,-24.96 -5.83,-6.77 -16.93,-7.15 -16.93,-7.15 v 0 z"
           style="stroke:#fcfafe;stroke-opacity:1" />
        <path
           id="path280757-1-7-4-7"
           class="cls-4"
           d="m 148.52,72.3 c 0.15,-4.55 27.62,-20.17 47.62,-25.34 37.03,-9.57 53.56,-5.25 81.15,-6.02 10.59,-0.29 33.25,0.91 33.25,0.91 0,0 -4.68,-4.33 -6.98,-5.84 -2.5,-1.65 -8.6,-4.34 -8.6,-4.34 0,0 14.33,-1.85 24.48,-2.24 10.38,-0.4 38.26,0.6 38.26,0.6 0,0 -4.25,-4.45 -6.66,-6.03 -3.55,-2.33 -11.21,-5.71 -11.21,-5.71 0,0 28.91,-1.93 41.18,-0.66 27.45,2.84 51.78,9.71 76.54,18.4 25.14,8.82 48.76,21.59 72.35,33.98 20.84,10.95 41.47,22.46 60.99,35.62 6.45,4.35 17.61,11.94 18.47,14.27 0.98,2.66 0.58,8.47 0.58,8.47 0,0 -32.21,-20.09 -48.81,-29.27 C 534.01,84.12 506.41,68.34 477.99,56.01 455.66,46.32 433.44,37.47 409.63,32.04 c -13.87,-3.16 -42.92,-4 -42.92,-4 0,0 2.48,3.52 3.7,5.81 0.73,1.37 2.14,5.15 2.14,5.15 0,0 -18.7,-0.76 -28.32,-0.78 -9.02,-0.02 -27.59,0.66 -27.59,0.66 0,0 0.5,4.08 1.06,6.1 0.69,2.49 2.69,7.42 2.69,7.42 0,0 -57.11,-5.29 -85.55,-3.03 -16.05,1.27 -30.04,2.04 -47.4,9.3 -10.72,4.48 -18.63,7.59 -31.6,14.72 -2.18,1.2 -7.4,0.89 -7.33,-1.1 v 0 z" />
        <path
           id="path404262-20-6-9-7"
           class="cls-15"
           d="m 404.57,456.3 c 0,0 -19.52,67.58 -21.27,107.66 -0.71,16.2 -2.54,42.68 -2.41,64.04 0.13,20.57 6.86,41.18 6.86,41.18 0,0 -10.84,-20.06 -13.08,-31.07 -5.9,-29.02 -0.24,-88.84 -0.24,-88.84 0,0 5.66,-60.59 22,-84.79 2.08,-3.08 8.14,-8.19 8.14,-8.19 v 0 z" />
        <path
           id="path405038-2-3-2-2"
           class="cls-17"
           d="m 174.82,468.54 c 0,0 17.78,-0.83 26.21,1.5 9.15,2.52 17.83,7.65 25.24,13.19 14.04,10.49 17.3,15.19 23.87,26.68 1.08,1.9 3.74,9.99 3.74,9.99 0,0 -5.64,-4.56 -8.77,-6.33 -3.27,-1.85 -11.18,-4.32 -11.18,-4.32 0,0 9.03,16.03 11.19,25.12 1.59,6.71 1.99,20.81 1.99,20.81 0,0 -7.55,-21.52 -13.59,-31.07 -5.27,-8.34 -18.97,-23.09 -18.97,-23.09 0,0 4.33,-0.54 6.51,-0.49 2.99,0.07 8.91,1.09 8.91,1.09 0,0 -6.86,-9.72 -11.49,-12.94 -13.1,-9.12 -43.66,-20.13 -43.66,-20.13 z" />
      </g>
      <g
         id="g35669-65-1-8"
         transform="matrix(1.1202267,0,0,1.1066964,10.807615,77.900485)"
         style="display:inline;stroke:none">
        <path
           style="fill:#1cb0d5;fill-opacity:1;stroke:none;stroke-width:0.0751812px;stroke-linecap:butt;stroke-linejoin:miter;stroke-opacity:1"
           d="m 226.48402,177.71765 c 0,0 3.001,0.40972 5.90361,-0.34647 2.1986,-0.57279 5.26262,-1.73471 5.68691,-1.9515 0.46861,-0.23942 2.87627,1.76264 3.683,3.0555 0.95361,1.52825 1.15933,2.75595 1.28873,4.13399 0.0443,0.47198 0.0855,1.40575 0.0855,1.40575 0,0 -0.77727,0.5239 -0.92906,1.25742 -0.17992,0.86939 0.27747,1.4714 0.27747,1.4714 0,0 -0.4834,0.84376 -0.53226,1.3137 -0.061,0.58614 0.16195,1.13546 0.16195,1.13546 0,0 -0.64551,2.24564 -4.09596,3.88548 -2.78866,1.32532 -6.51152,1.28553 -9.27919,0.13147 -2.17391,-0.90647 -3.53772,-2.79619 -4.07639,-3.79973 -0.97055,-1.80812 -1.01129,-4.23553 -0.77428,-6.14781 0.30425,-2.45478 1.52108,-4.51608 2.59998,-5.54466 z"
           id="path113940-1-5-9-8-8"
           sodipodi:nodetypes="ssssscscscssssss" />
        <path
           style="display:inline;fill:#fbfafd;fill-opacity:1;stroke:none;stroke-width:0.0751812px;stroke-linecap:butt;stroke-linejoin:miter;stroke-opacity:1"
           d="m 233.52407,182.51698 c 3.27074,-0.5109 9.11963,-2.1552 9.11963,-2.1552 0,0 0.0584,0.14527 0.0845,0.23622 0.22971,0.80066 0.35931,1.63337 0.3876,2.77172 0.0117,0.47149 0.0159,0.6452 0.0159,0.6452 0,0 -0.7661,0.5202 -0.90148,1.26307 -0.15184,0.8332 0.18339,1.34367 0.24996,1.46575 -1.55821,1.11675 -5.46539,2.13046 -8.15518,2.61011 -3.99314,0.71208 -9.59127,0.18711 -9.59127,0.18711 -1.04788,-1.94345 -1.19435,-3.86463 -0.845,-6.29972 0,0 6.36454,-0.21336 9.63528,-0.72426 z"
           id="path113940-3-7-0-9-3-6"
           sodipodi:nodetypes="zcsscscscczz" />
        <path
           style="fill:#ffffff;fill-opacity:0.29956;stroke:none;stroke-width:0.0751812px;stroke-linecap:butt;stroke-linejoin:miter;stroke-opacity:1"
           d="m 236.46585,176.06499 c 0,0 1.0528,-0.40473 1.56364,-0.6229 0.1413,-0.0778 0.28611,-0.0285 0.39538,0.004 0.8477,0.47104 1.4316,0.90888 2.5461,2.03924 1.17353,1.19022 1.67273,2.87682 1.67273,2.87682 l -1.18512,0.32135 c 0,0 -0.20397,-1.08046 -2.0556,-2.82092 -1.66996,-1.5697 -2.93713,-1.79759 -2.93713,-1.79722 z"
           id="path396311-9-8-0-4-0"
           sodipodi:nodetypes="cccsccscc" />
        <circle
           style="fill:#ffd54f;fill-opacity:1;stroke:none;stroke-width:0.396885"
           id="path1-3-7-2-4"
           cy="186.00244"
           cx="233.87686"
           r="2.0472944" />
      </g>
      <path
         id="path355396-1-0-7-6-2-6"
         style="display:inline;fill:#000000;fill-opacity:0.298191;stroke:none;stroke-width:0.0838708px;stroke-linecap:butt;stroke-linejoin:miter;stroke-opacity:1"
         d="m 264.55293,274.57976 c -1.87173,1.71312 -2.7317,4.37101 -2.93936,6.11332 -0.13621,0.91875 -0.21383,1.85871 -0.17105,2.84634 0.0107,1.5444 0.54111,4.18005 2.93005,6.41873 0.61573,0.599 1.29368,1.07331 1.86811,1.37718 1.51917,0.89758 4.27679,1.30297 5.48855,1.3286 2.639,0.0558 4.04879,-0.3937 5.24258,-0.87488 0.81546,-0.3287 2.24141,-1.05801 3.33984,-2.0867 1.40896,-1.31951 1.71411,-2.42259 1.71411,-2.42259 -7.9e-4,0.002 -0.1197,-0.38791 -0.15503,-0.57826 -0.0361,-0.19424 -0.0351,-0.58291 -0.0351,-0.58291 -1.86484,3.48034 -4.65357,4.63303 -6.11229,5.03742 -3.21564,0.89145 -7.12391,0.40924 -9.14621,-1.04696 l -0.009,-5.3e-4 c -3.20711,-2.27891 -3.78483,-5.55939 -3.26716,-9.49348 0.26634,-2.02415 1.6614,-5.12966 2.94522,-5.903 z"
         sodipodi:nodetypes="cccccssscscsccscc" />
    </g>
  </g>
</svg>
