<?xml version="1.0" encoding="UTF-8" standalone="no"?>
<!-- Created with Inkscape (http://www.inkscape.org/) -->

<svg
   viewBox="0 0 267.64084 251.40256"
   version="1.1"
   id="svg5"
   inkscape:version="1.1.2 (0a00cf5339, 2022-02-04)"
   sodipodi:docname="logo-carpincho.svg"
   xmlns:inkscape="http://www.inkscape.org/namespaces/inkscape"
   xmlns:sodipodi="http://sodipodi.sourceforge.net/DTD/sodipodi-0.dtd"
   xmlns="http://www.w3.org/2000/svg"
   xmlns:svg="http://www.w3.org/2000/svg">
  <sodipodi:namedview
     id="namedview7"
     pagecolor="#ffffff"
     bordercolor="#666666"
     borderopacity="1.0"
     inkscape:pageshadow="2"
     inkscape:pageopacity="0.0"
     inkscape:pagecheckerboard="0"
     inkscape:document-units="mm"
     showgrid="false"
     inkscape:zoom="0.46803664"
     inkscape:cx="683.70716"
     inkscape:cy="468.98038"
     inkscape:window-width="1920"
     inkscape:window-height="1048"
     inkscape:window-x="0"
     inkscape:window-y="0"
     inkscape:window-maximized="1"
     inkscape:current-layer="layer11"
     inkscape:snap-nodes="false"
     inkscape:snap-others="true" />
  <defs
     id="defs2">
    <inkscape:path-effect
       effect="spiro"
       id="path-effect33314"
       is_visible="true"
       lpeversion="1" />
  </defs>
  <g
     inkscape:groupmode="layer"
     id="layer2"
     inkscape:label="Background"
     style="display:inline"
     transform="translate(-133.7192,-65.202047)">
    <ellipse
       style="display:inline;fill:#ffb200;fill-opacity:1;stroke:#ee960f;stroke-width:0.248575;stroke-linecap:round;stroke-linejoin:round;paint-order:stroke fill markers"
       id="path920"
       cx="269.47961"
       cy="201.02304"
       rx="121.12626"
       ry="114.83179" />
  </g>
  <g
     inkscape:groupmode="layer"
     id="layer4"
     inkscape:label="Trazo carpincho"
     style="display:inline"
     transform="translate(-133.7192,-65.202047)">
    <path
       style="display:inline;fill:#6d1901;fill-opacity:1;stroke:#560400;stroke-width:0.264583px;stroke-linecap:butt;stroke-linejoin:miter;stroke-opacity:1"
       d="m 65.145034,56.939987 c 0,0 -1.332234,-0.680369 -2.195739,-2.039753 -0.620617,-0.977013 -0.778392,-2.218751 -0.843844,-3.088169 -0.161996,-2.151842 0.79874,-4.284809 2.297465,-5.837384 6.910427,-7.158724 17.392022,-10.180469 27.487672,-11.912609 6.19236,-1.062441 19.096062,-0.232625 19.096062,-0.232625 0,0 0.16272,-1.084925 0.66438,-1.507841 0.94489,-0.795883 2.72806,-1.493735 5.13683,-1.886502 3.31319,-0.54024 11.5854,-0.416751 11.5854,-0.416751 0,0 0.0422,-1.12702 0.41931,-1.607604 1.02725,-1.309077 3.04314,-1.922632 4.66691,-2.286344 8.23952,-1.845588 18.0971,-1.130308 26.34614,0.312709 13.99117,2.447498 26.50967,8.050986 38.90623,14.101457 13.2724,6.477949 31.7516,17.790992 37.25624,23.4711 1.09347,1.128326 2.14576,5.97834 2.14509,8.788666 -0.002,6.287849 -0.77065,8.769637 -2.25498,12.674579 -1.26059,3.31633 -2.98182,7.288628 -5.4816,11.067214 -3.06057,4.62624 -7.0062,8.73888 -7.0062,8.73888 0,0 3.71667,3.97685 4.98215,6.28072 1.36389,2.48305 2.89408,7.991 2.89408,7.991 0,0 14.38422,-4.30667 21.18733,-2.26557 1.7218,0.51659 3.27293,1.73658 4.13827,3.31222 0.90845,1.65415 0.65074,5.86022 0.65074,5.86022 5.5494,1.54792 9.92256,5.04881 13.69706,9.80925 3.68342,4.64559 7.67997,12.71578 7.86015,22.3396 0,0 2.06966,0.3178 2.75533,0.84763 0.60949,0.47096 1.65997,1.61328 2.02122,2.66624 0.45613,1.3295 0.14937,3.05013 -0.14294,4.40693 -0.35241,1.63574 -1.89014,4.15406 -1.89014,4.15406 0,0 1.24982,1.8846 1.1732,3.82355 -0.0696,1.76139 -1.32378,3.94193 -2.52433,5.23266 -1.4421,1.55042 -5.03851,2.1055 -5.03851,2.1055 0,0 -3.7013,7.37067 -8.90754,11.47715 -3.80403,3.00047 -9.02066,6.13296 -13.93262,7.44357 -8.84345,2.3596 -11.06331,1.66548 -16.63741,1.68362 -5.87157,0.0191 -16.4934,-4.01469 -16.4934,-4.01469 0,0 -12.27028,-0.60609 -18.06023,1.08145 -11.10973,3.23805 -16.20128,6.74146 -20.99407,10.90064 -1.54845,1.34374 -2.55959,3.58671 -3.59404,4.65653 -0.72388,0.74862 -3.07234,1.12005 -3.40972,1.65556 -1.48623,2.35905 -4.12886,6.95017 -6.86982,10.15516 -4.15294,4.85601 -9.13305,7.87443 -9.13305,7.87443 l -0.6685,19.17562 c 0,0 45.73735,0.66494 67.2131,3.13199 10.36465,1.19065 22.22965,2.83982 28.74223,5.76986 1.84973,0.83221 5.01228,2.91303 -0.19249,5.08677 -9.5234,3.97741 -33.25193,5.48509 -33.25193,5.48509 0,0 -45.83453,2.65161 -68.77887,2.74393 -21.05789,0.0847 -42.67831,-0.73876 -64.034658,-2.5598 -17.572034,-1.49835 -43.632121,-4.78415 -51.012315,-7.63282 -4.236252,-1.63514 -6.409461,-4.3472 -1.643007,-6.15443 0,0 6.289317,-2.09191 9.74795,-2.68899 3.390175,-0.58526 10.375896,-1.14211 10.375896,-1.14211 0,0 -8.762983,-5.82312 -12.556757,-9.40509 -2.758159,-2.60416 -5.112439,-5.4339 -7.212769,-8.5742 -1.964091,-3.10154 -3.621934,-7.04948 -4.920948,-10.29643 0,0 -0.999151,0.66566 -2.655291,0.26945 -0.99372,-0.23774 -2.338659,-2.97473 -3.178829,-5.19324 -1.974992,-5.21505 -1.949578,-15.91967 -1.949578,-15.91967 0,0 -2.289019,0.0923 -3.182887,-0.79274 -1.810924,-1.793 -1.560352,-4.86861 -1.449134,-7.43811 0.283652,-6.55328 3.906766,-13.79269 3.906766,-13.79269 0,0 -2.110241,-1.38937 -2.52146,-2.85193 -1.110971,-3.95133 0.593874,-6.76911 2.182645,-9.55337 1.380224,-2.41879 5.305422,-6.23701 5.305422,-6.23701 0,0 -1.346506,-1.32424 -1.400579,-3.11337 -0.07799,-2.58037 0.791107,-4.27208 3.324549,-7.23302 2.533442,-2.96094 15.285761,-12.58896 15.285761,-12.58896 0,0 -0.823393,-0.43995 -1.079331,-1.34801 -0.42751,-1.51679 1.551267,-4.13882 3.250064,-5.80621 2.630484,-2.58186 5.702725,-5.0964 7.159058,-6.20073 4.35697,-3.30389 8.504083,-5.85325 12.147227,-9.72255 3.141596,-3.33662 8.023114,-11.11331 8.023114,-11.11331 l 7.404764,-14.055208 c 0,0 -2.369133,-2.586539 -2.727526,-4.223718 -0.433477,-1.980167 0.582304,-5.331284 0.862871,-6.019646 0.788361,-1.934219 5.407538,-7.749774 5.407538,-7.749774 0,0 -5.553667,-2.062154 -7.794199,-3.437012 -2.665251,-1.635479 -4.818899,-3.407979 -6.637944,-5.682898 -1.408716,-1.761757 -2.211696,-3.605548 -2.817136,-5.778498 -0.445322,-1.598276 -0.629893,-5.173619 -0.629893,-5.173619 z"
       id="path35886"
       sodipodi:nodetypes="csssscsscsssssssscscsscscssscsscssscsssssccssscssssscsccsscsscsscszcsssscccscsssc"
       transform="translate(117.43668,40.31669)" />
  </g>
  <g
     inkscape:groupmode="layer"
     id="layer7"
     inkscape:label="mate background"
     style="display:inline"
     transform="translate(-133.7192,-65.202047)">
    <path
       style="fill:#05bed3;fill-opacity:1;stroke:#560400;stroke-width:0.264583px;stroke-linecap:butt;stroke-linejoin:miter;stroke-opacity:1"
       d="m 331.80045,179.52161 c 0,0 10.56137,1.44195 20.77645,-1.21932 7.73746,-2.0158 18.5206,-6.10493 20.0138,-6.86786 1.64917,-0.84261 10.1224,6.20321 12.9615,10.75314 3.35601,5.37832 4.07999,9.69898 4.53539,14.54865 0.15598,1.66103 0.30085,4.94725 0.30085,4.94725 0,0 -2.73539,1.84374 -3.26961,4.4252 -0.63319,3.05964 0.9765,5.17825 0.9765,5.17825 0,0 -1.70119,2.96942 -1.87317,4.62328 -0.2145,2.06276 0.56996,3.99601 0.56996,3.99601 0,0 -2.27172,7.90301 -14.41484,13.67408 -9.81406,4.66418 -22.91584,4.52414 -32.65601,0.4627 -7.65061,-3.19014 -12.39382,-9.87223 -14.34597,-13.37235 -4.22685,-7.57854 -3.69513,-14.92471 -2.72489,-21.63583 1.13327,-7.83874 5.35309,-15.89334 9.15004,-19.5132 z"
       id="path113940"
       sodipodi:nodetypes="ssssscscscsssss" />
    <path
       style="fill:#c2c8c1;fill-opacity:1;stroke:#560400;stroke-width:0.264583px;stroke-linecap:butt;stroke-linejoin:miter;stroke-opacity:1"
       d="m 335.05241,175.23357 c -3.36542,0.10221 -3.13844,-3.22705 -2.60653,-4.45314 0.8013,-1.84704 4.30989,-3.83518 6.30738,-4.08752 8.8915,-1.12322 16.40328,-3.92003 24.36913,-4.93312 2.46742,-0.31381 5.35984,-0.0375 6.53351,1.84733 0.8134,1.30626 0.61453,3.20582 -0.38397,3.90479 -2.07851,1.455 -9.4501,3.94799 -11.57538,4.48042 -9.51604,2.38397 -11.51285,2.90315 -22.64414,3.24124 z"
       id="path138177"
       sodipodi:nodetypes="ssssssss" />
    <path
       style="display:inline;fill:#afa5a2;fill-opacity:1;stroke:#560400;stroke-width:0.264583px;stroke-linecap:butt;stroke-linejoin:miter;stroke-opacity:1"
       d="m 212.46659,108.28559 c 0,0 2.04164,-1.68556 3.87435,-1.2338 3.87074,0.95411 5.63322,3.71413 7.30654,6.09581 2.35279,3.34878 2.91456,7.80642 2.91456,7.80642 0,0 -1.55073,0.0421 -2.1826,0.16821 -0.83846,0.16733 -2.27876,0.75666 -2.27876,0.75666 0,0 -1.35049,-5.57645 -4.36839,-9.08262 -2.05559,-2.38817 -5.2657,-4.51068 -5.2657,-4.51068 z"
       id="path178325"
       sodipodi:nodetypes="csscscsc"
       transform="translate(117.43668,40.31669)" />
  </g>
  <g
     inkscape:groupmode="layer"
     id="layer8"
     inkscape:label="mate blanco"
     style="display:inline"
     transform="translate(-133.7192,-65.202047)">
    <path
       style="display:inline;fill:#fcfffa;fill-opacity:1;stroke:#fcfffa;stroke-width:0.264583px;stroke-linecap:butt;stroke-linejoin:miter;stroke-opacity:1"
       d="m 360.34501,196.13262 c 20.15273,-4.00083 28.0842,-7.31066 28.0842,-7.31066 0,0 1.39455,5.10465 1.65838,7.91426 0.15598,1.66103 0.30085,4.94725 0.30085,4.94725 0,0 -2.73539,1.84374 -3.26961,4.4252 -0.63319,3.05964 0.9765,5.17825 0.9765,5.17825 0,0 -1.5877,2.98519 -1.87317,4.62328 -0.40055,2.29839 0.27773,4.00697 0.27773,4.00697 0,0 -13.26561,6.01873 -28.14944,8.11645 -14.13497,1.99218 -26.92287,0.2915 -26.92287,0.2915 0,0 -3.61089,-3.76234 -5.83484,-7.75665 -5.47213,-8.55737 -2.66651,-21.59999 -2.66651,-21.59999 0,0 23.03882,0.70016 37.41878,-2.83586 z"
       id="path113940-3"
       sodipodi:nodetypes="ccscscscscccc" />
  </g>
  <g
     inkscape:groupmode="layer"
     id="layer9"
     inkscape:label="Estrellas"
     style="display:inline"
     transform="translate(-133.7192,-65.202047)">
    <path
       style="display:inline;fill:#febb00;fill-opacity:1;stroke:#febb00;stroke-width:0.264583px;stroke-linecap:butt;stroke-linejoin:miter;stroke-opacity:1"
       d="m 236.65818,141.4885 4.32949,5.59759 7.55123,0.52975 -5.03837,5.88157 2.56634,7.79797 -6.77772,-2.37179 -5.90289,3.84987 0.0216,-7.22621 -6.30126,-5.01033 7.4746,-2.30786 z"
       id="path165815"
       sodipodi:nodetypes="ccccccccccc"
       transform="translate(117.43668,40.31669)" />
    <path
       style="display:inline;fill:#febb00;fill-opacity:1;stroke:#febb00;stroke-width:0.264583px;stroke-linecap:butt;stroke-linejoin:miter;stroke-opacity:1"
       d="m 369.99166,199.68072 4.02588,5.64208 7.51473,0.60197 -5.34692,5.837 2.14716,7.82694 -6.64369,-2.43771 -6.10203,3.79588 0.40742,-7.2302 -6.02687,-5.07326 7.58969,-2.23801 z"
       id="path165815-6"
       sodipodi:nodetypes="ccccccccccc" />
    <path
       style="display:inline;fill:#febb00;fill-opacity:1;stroke:#febb00;stroke-width:0.264583px;stroke-linecap:butt;stroke-linejoin:miter;stroke-opacity:1"
       d="m 226.01219,163.18026 3.8983,5.73558 7.49038,0.7661 -5.46453,5.72678 1.97537,7.88185 -6.58115,-2.58482 -6.17453,3.6671 0.5625,-7.22891 -5.90849,-5.20969 7.62639,-2.07522 z"
       id="path165815-7"
       sodipodi:nodetypes="ccccccccccc"
       transform="translate(117.43668,40.31669)" />
  </g>
  <g
     inkscape:groupmode="layer"
     id="layer6"
     inkscape:label="gap del mate"
     style="display:inline"
     transform="translate(-133.7192,-65.202047)">
    <path
       style="fill:#ffb303;fill-opacity:1;stroke:#560400;stroke-width:0.264583px;stroke-linecap:butt;stroke-linejoin:miter;stroke-opacity:1"
       d="m 333.13327,158.03084 c 0,0 0.95486,1.61549 1.32179,2.43903 0.34895,0.7832 0.82587,2.3812 0.82587,2.3812 0,0 -5.54801,1.34802 -7.54578,6.44605 -1.34103,3.42214 -0.0184,6.80756 -0.0184,6.80756 0,0 -4.5818,4.15388 -8.2727,12.28072 -2.78438,6.13081 -3.21486,15.44351 -3.21486,15.44351 0,0 -5.01868,-1.32885 -7.70851,-1.98493 -2.14772,-0.52385 -6.40938,-1.37303 -6.40938,-1.37303 0,0 -1.12296,-5.53761 -1.96342,-7.90135 -0.80437,-2.26225 -2.9238,-5.93028 -2.9238,-5.93028 0,0 1.06566,-0.87707 1.23745,-1.66228 0.54077,-2.47163 -1.92201,-6.65625 -3.41275,-9.32583 -1.22684,-2.19697 -3.97724,-6.03882 -3.97724,-6.03882 0,0 1.52041,-0.40997 2.56645,-0.56689 0.77755,-0.11665 3.1381,-0.29042 3.1381,-0.29042 0,0 -0.88711,3.56641 1.47358,3.83 7.24693,0.80918 14.73094,-3.03863 14.73094,-3.03863 0,0 0.31198,2.38476 2.70683,2.24699 6.712,-0.38611 17.44583,-13.7626 17.44583,-13.7626 z"
       id="path108501"
       sodipodi:nodetypes="cscscscscscsscscscsc" />
  </g>
  <g
     inkscape:groupmode="layer"
     id="layer5"
     inkscape:label="Fill carpincho"
     style="display:inline"
     transform="translate(-133.7192,-65.202047)">
    <path
       style="fill:#dc4d05;fill-opacity:1;stroke:#560400;stroke-width:0.264583px;stroke-linecap:butt;stroke-linejoin:miter;stroke-opacity:1"
       d="m 188.20274,91.530448 c 0,0 -1.95528,0.229789 -2.27633,-0.455479 -0.22275,-0.475449 0.34831,-1.041182 0.7406,-1.390157 6.73282,-5.989526 17.08574,-9.06496 25.17742,-9.846083 9.78077,-0.944178 30.72528,-0.107596 30.72528,-0.107596 0,0 -1.30916,-1.174838 -2.06625,-1.696386 -0.82447,-0.567973 -2.66958,-1.302211 -2.66958,-1.302211 0,0 2.48539,-1.182146 8.26052,-1.32803 4.53732,-0.114617 13.61514,0.178522 13.61514,0.178522 0,0 -1.99871,-1.479519 -2.95505,-2.051052 -1.18039,-0.705432 -3.4195,-1.688732 -3.4195,-1.688732 0,0 5.57922,-0.840323 9.67842,-0.933658 3.47664,-0.07916 12.22013,1.07049 15.61841,1.808645 14.755,3.204996 21.52312,7.150275 40.37901,16.403647 19.22687,9.435425 29.92611,18.343202 29.92611,18.343202 0,0 1.73677,9.34121 -0.87013,16.12231 -1.17478,3.05586 -3.71464,8.48252 -6.18111,12.03227 -5.02918,7.23797 -7.84595,7.73235 -7.84595,7.73235 0,0 0.99867,-2.14349 1.40004,-3.47027 0.53269,-1.76091 0.43136,-5.14452 0.43136,-5.14452 0,0 -1.86891,3.55741 -3.07756,5.15106 -1.30256,1.71747 -3.46426,4.22507 -6.11161,5.76541 -3.63786,2.11666 -12.01996,3.86645 -12.01996,3.86645 0,0 5.5979,1.31661 9.15597,1.26003 l 4.55482,-0.0724 c 0,0 -1.95228,4.68515 -3.6347,7.48228 -1.32301,2.1996 -5.53118,6.43558 -5.53118,6.43558 0,0 0.65129,-2.11056 0.83725,-3.26821 0.16233,-1.01048 0.4387,-3.32299 0.4387,-3.32299 0,0 -4.46089,4.42364 -6.99721,5.96008 -4.28076,2.59317 -11.37067,4.12975 -11.37067,4.12975 0,0 2.23371,-2.69513 3.07289,-3.71294 2.06062,-2.49923 2.12935,-5.08598 2.12935,-5.08598 0,0 -6.78266,4.2432 -13.86781,5.41689 -7.13926,1.18264 -9.67907,-0.56665 -9.67907,-0.56665 0,0 2.28258,-1.05349 3.51126,-2.2554 0.80516,-0.78762 1.35298,-2.37368 1.35298,-2.37368 0,0 -6.87388,0.82245 -10.29624,0.97459 -5.52157,0.24546 -10.99169,-0.49715 -10.99169,-0.49715 0,0 1.75194,-0.86423 3.44774,-2.4563 0.69871,-0.65597 1.42157,-2.05312 1.42157,-2.05312 0,0 -7.81329,-0.0153 -11.19051,-0.41457 -4.24771,-0.50223 -12.1337,-1.8159 -12.1337,-1.8159 0,0 3.12945,3.23526 5.1968,4.19313 2.09842,0.97227 6.03787,2.11083 6.03787,2.11083 0,0 -0.97867,1.7134 -0.62928,2.53435 0.35317,0.82986 1.34697,1.26812 2.18978,1.58917 5.16424,1.96723 16.49568,1.65745 16.49568,1.65745 0,0 5.4336,5.02624 7.84578,7.70668 2.66976,2.96666 5.99161,9.11713 5.99161,9.11713 0,0 -1.89253,-1.02709 -2.76329,-1.25622 -0.98839,-0.26008 -2.81415,-0.2114 -2.81415,-0.2114 0,0 4.30007,6.1452 6.02573,9.46267 1.33116,2.55907 3.30829,7.99641 3.30829,7.99641 l -6.69261,-1.90986 c 0,0 4.44874,7.17858 5.88835,10.92707 1.20833,3.14626 2.23235,9.44452 2.23235,9.44452 0,0 -1.052,-0.6755 -1.70843,-1.08404 -0.69496,-0.43252 -2.34575,-1.43914 -2.34575,-1.43914 0,0 5.215,10.38633 3.48222,20.72431 -1.0745,6.41058 -3.56532,11.39763 -3.56532,11.39763 0,0 -0.46271,-3.58277 -0.9879,-5.27008 -0.59572,-1.91388 -2.43912,-5.37502 -2.43912,-5.37502 0,0 -2.07144,10.37264 -4.42701,14.87025 -3.68338,7.03286 -9.50915,10.99721 -9.50915,10.99721 0,0 0.95602,-10.24563 1.50949,-15.32005 0.89361,-8.19306 -0.26478,-20.10725 -0.26478,-20.10725 0,0 -2.055,5.68538 -3.86767,13.25244 -1.04593,4.36626 -1.77723,9.51202 -2.58877,14.15965 -1.46354,8.38152 -1.86092,19.16873 -1.98504,27.00439 -0.18667,11.78473 0.80876,15.84749 1.53949,18.39559 0.85165,2.96978 4.69626,7.4811 4.69626,7.4811 0,0 -3.35443,-0.87315 -4.67885,-1.17859 -1.3016,-0.30017 -3.00723,-0.46183 -3.00723,-0.46183 0,0 0.0568,1.5171 0.14851,2.27772 0.12324,1.02199 0.38296,2.85314 0.38296,2.85314 0,0 -3.50459,-1.63095 -5.06331,-2.68278 -1.31031,-0.88421 -3.555,-3.03902 -3.555,-3.03902 l -5.2096,3.13964 c -1.62622,0.98007 -5.50259,1.55328 -5.50259,1.55328 0,0 2.15871,-6.19795 2.33771,-9.43218 0.90238,-16.3044 -5.72265,-40.29989 -5.72265,-40.29989 0,0 -0.8951,1.62251 -1.25169,2.46603 -0.32659,0.77259 -0.73996,2.64384 -0.73996,2.64384 0,0 -1.21062,-5.62694 -1.72278,-8.56954 -0.54829,-3.15026 -1.44839,-9.70847 -1.44839,-9.70847 0,0 -0.85448,1.14512 -1.29422,1.85409 -0.44393,0.71574 -1.25319,2.49693 -1.25319,2.49693 0,0 -1.10996,-8.95223 -0.52521,-13.95052 0.59773,-5.10922 4.02436,-14.08808 4.02436,-14.08808 0,0 -4.27119,4.50373 -5.98662,8.13333 -1.41021,2.9838 -2.45174,6.86266 -2.84946,10.13887 -0.85302,7.02668 0.53355,11.53411 2.61173,16.65138 1.26054,3.10392 3.83639,1.95266 3.83639,1.95266 0,0 0.62254,5.50222 1.40914,8.10263 1.00345,3.31727 2.11365,6.96024 2.07739,6.87598 0,0 -5.73866,3.71655 -9.79133,4.73779 -4.29473,1.08223 -12.12797,1.99784 -12.12797,1.99784 0,0 3.06924,-3.14568 4.33993,-4.94382 1.35178,-1.91286 2.65423,-3.97122 3.36729,-6.24875 1.31689,-4.20618 0.92274,-10.85899 0.92274,-10.85899 0.85048,-0.74445 1.83107,-1.73654 1.97907,-3.56118 0.12746,-1.57132 0.15332,-10.29158 -4.58292,-16.37769 -2.51901,-3.23695 -5.68039,-6.33229 -9.50477,-7.81463 -6.39744,-2.47965 -14.96335,-1.38668 -14.96335,-1.38668 0,0 9.05743,2.86681 13.28032,6.24897 7.39838,5.92546 8.77283,12.79729 8.77283,12.79729 0,0 -2.37951,-1.53841 -3.53673,-2.097 -1.06293,-0.51307 -3.09567,-1.13007 -3.09567,-1.13007 0,0 4.39415,7.84132 4.51223,12.77704 0.13181,5.50953 -0.98098,10.3138 -4.2065,15.32523 -2.40224,3.73231 -10.81582,9.2749 -16.55363,10.41541 -13.36149,2.65587 -19.69376,-0.75135 -19.69376,-0.75135 0,0 3.82696,4.69782 6.97797,5.83973 4.10496,1.48761 11.28939,1.13382 13.08038,0.69054 6.06065,-1.50006 10.88027,-0.45921 13.18337,0.70922 2.57368,1.30571 4.20823,2.91369 5.72931,4.98622 0.95823,1.30564 2.26016,4.59674 2.26016,4.59674 0,0 -3.95629,-2.73178 -5.84164,-3.83071 -1.97626,-1.15191 -5.89662,-2.90512 -5.89662,-2.90512 0,0 2.81766,2.54747 4.28635,4.51477 1.40775,1.88566 2.75706,5.62082 2.75706,5.62082 0,0 -5.30395,-3.29537 -7.78425,-4.54552 -2.5627,-1.29169 -7.34473,-3.07999 -7.34473,-3.07999 0,0 2.03807,2.79493 2.878,4.19216 0.80644,1.34151 2.06109,4.02405 2.06109,4.02405 0,0 -9.24154,-2.34293 -13.62536,-4.17141 -5.7319,-2.39076 -11.45099,-5.08378 -16.41085,-8.82145 -5.27912,-3.97826 -8.70577,-7.67236 -12.36856,-12.04002 -2.48198,-2.95962 -6.18612,-9.48031 -6.18612,-9.48031 0,0 0.11457,3.32513 0.42799,4.85866 0.32288,1.58001 1.22712,4.60552 1.22712,4.60552 0,0 -3.1705,-4.28171 -4.47148,-6.59828 -1.21718,-2.16738 -2.24201,-4.6964 -3.02828,-7.05455 -1.47576,-4.426 -3.3208,-13.58078 -3.3208,-13.58078 0,0 -1.44729,1.47555 -1.94991,2.37175 -0.68728,1.22545 -1.55432,4.15594 -1.55432,4.15594 -1.71326,-5.61491 -2.26707,-7.58199 -2.2644,-14.96299 0.16042,-4.13559 0.73298,-8.12313 0.73298,-8.12313 0,0 -1.5614,1.08574 -2.29867,1.76533 -0.67378,0.62106 -2.1066,2.13532 -2.1066,2.13532 0,0 1.55185,-8.32698 3.17117,-12.14629 2.6476,-6.24459 9.31154,-14.10075 9.31154,-14.10075 0,0 -4.37127,1.94645 -6.04015,2.94139 -1.90584,1.1362 -5.03091,3.63824 -5.03091,3.63824 0,0 2.29539,-5.01493 4.1369,-7.63232 3.44217,-4.89244 5.73938,-6.78396 8.84694,-9.69273 2.01585,-1.88691 6.42803,-4.91949 6.42803,-4.91949 0,0 -3.4176,0.47701 -5.47075,0.96697 -1.75222,0.41815 -5.94535,1.75737 -5.94535,1.75737 0,0 6.42766,-5.76161 13.4158,-11.07473 5.71504,-4.34517 15.30183,-10.98259 15.30183,-10.98259 0,0 -3.16546,0.45268 -4.91841,1.03367 -1.35973,0.45067 -5.75406,0.74099 -5.75406,0.74099 0,0 12.79168,-9.41726 17.06751,-14.16756 7.3492,-8.16472 10.65694,-13.37459 15.82937,-23.06784 2.67036,-5.00431 6.89619,-15.3622 6.89619,-15.3622 0,0 -1.37105,0.39947 -2.11732,0.73707 -0.7844,0.35486 -2.90913,1.44032 -2.90913,1.44032 0,0 2.87673,-5.41806 5.11114,-8.11255 3.38555,-4.08266 10.27484,-7.81999 10.27484,-7.81999 0,0 -10.31433,2.25677 -22.37509,-5.06524 -3.14064,-1.90667 -6.16221,-6.5837 -6.70168,-9.593611 -0.53295,-2.973525 -0.35328,-7.051191 -0.35328,-7.051191 z"
       id="path75800"
       sodipodi:nodetypes="cssscscscscssscsscscsscscscscscscscscscscscscsscscscsccscscscscscscsssscscscscscscscscscscssscscscsscssscscscssscsssscscscscscssscscsscscccscscscsscscscscsscscscssc" />
    <path
       style="fill:#fd7408;fill-opacity:1;stroke:#560400;stroke-width:0.264583px;stroke-linecap:butt;stroke-linejoin:miter;stroke-opacity:1"
       d="m 302.24865,206.84777 14.12594,3.51149 c 0,0 1.50464,8.19231 3.49507,12.00917 1.84552,3.539 7.6378,9.73026 7.6378,9.73026 0,0 -9.00152,1.0743 -12.9203,2.24064 -4.87182,1.44998 -12.97547,5.96469 -12.97547,5.96469 0,0 0.52829,-4.72727 0.39783,-7.09109 -0.14566,-2.63921 -1.31276,-7.82025 -1.31276,-7.82025 0,0 1.41079,-0.11343 1.82269,-0.60323 1.78317,-2.12041 1.22623,-5.45112 1.21946,-8.22164 -0.008,-3.27786 -1.49026,-9.72004 -1.49026,-9.72004 z"
       id="path190775"
       sodipodi:nodetypes="ccscscscssc" />
    <path
       style="fill:#fc9421;fill-opacity:1;stroke:#560400;stroke-width:0.264583px;stroke-linecap:butt;stroke-linejoin:miter;stroke-opacity:1"
       d="m 392.78483,206.18954 c 0.53383,-1.02415 1.79577,-2.47627 2.84051,-1.98397 0.70571,0.33254 0.29745,1.56042 0.18796,2.33283 -0.10043,0.70849 -0.12954,1.66962 -0.76028,2.00757 -0.68361,0.36627 -1.78459,0.0873 -2.26798,-0.51917 -0.38171,-0.47891 -0.28328,-1.29419 -2.1e-4,-1.83726 z"
       id="path217920"
       sodipodi:nodetypes="ssssss" />
    <path
       style="display:inline;fill:#fa951d;fill-opacity:1;stroke:#560400;stroke-width:0.264583px;stroke-linecap:butt;stroke-linejoin:miter;stroke-opacity:1"
       d="m 391.23347,214.90595 c 0.31377,-1.11149 1.25308,-2.79043 2.37626,-2.52152 0.75869,0.18165 0.6094,1.46698 0.65972,2.24548 0.0462,0.71409 0.21365,1.66096 -0.33492,2.12043 -0.59456,0.49797 -1.72929,0.44938 -2.3262,-0.0458 -0.47134,-0.391 -0.54124,-1.20923 -0.37486,-1.79861 z"
       id="path217920-5"
       sodipodi:nodetypes="ssssss" />
  </g>
  <g
     inkscape:groupmode="layer"
     id="layer13"
     inkscape:label="Fill carpincho 2"
     style="display:inline"
     transform="translate(-133.7192,-65.202047)">
    <path
       style="fill:#fe7c02;fill-opacity:1;stroke:#fe7c02;stroke-width:0.264583px;stroke-linecap:butt;stroke-linejoin:miter;stroke-opacity:1"
       d="m 215.86534,229.8216 c 0,0 -5.52935,-0.8314 -8.42787,-0.79908 -2.20869,0.0246 -6.71761,0.65196 -6.71761,0.65196 0,0 9.39987,2.46957 14.96481,7.00546 5.79121,4.7203 7.5832,11.98603 7.5832,11.98603 0,0 -2.47441,-2.04045 -3.90457,-2.7316 -0.86819,-0.41957 -2.77207,-0.82689 -2.77207,-0.82689 0,0 3.3579,7.08151 4.15817,11.04468 0.44577,2.2076 0.25912,6.75149 0.25912,6.75149 l -1.75615,-1.74506 c 0,0 -0.72506,4.63325 -2.34338,6.08354 -5.22648,4.68381 -13.36542,5.99818 -20.35606,5.3776 -6.07858,-0.53961 -11.84686,-3.89328 -16.59974,-7.72088 -1.65515,-1.33293 -3.85931,-5.0746 -3.85931,-5.0746 l 7.32394,1.84402 c 0,0 -6.70669,-7.08531 -8.64387,-11.46059 -2.13294,-4.81742 -2.94506,-15.52866 -2.94506,-15.52866 l -4.88699,12.4123 c 0,0 -2.4881,-7.64726 -2.54655,-11.60827 -0.053,-3.59098 0.81906,-7.19475 1.99713,-10.5874 1.07724,-3.10228 4.5668,-8.72959 4.5668,-8.72959 0,0 -4.28585,2.10975 -6.31957,3.35583 -2.15213,1.31863 -6.20081,4.34559 -6.20081,4.34559 0,0 1.48041,-6.5926 3.18974,-9.4407 2.50848,-4.17963 10.02426,-10.64755 10.02426,-10.64755 0,0 -5.37383,0.47955 -7.89147,1.36771 -3.44563,1.21553 -9.5841,5.3192 -9.5841,5.3192 0,0 5.31563,-8.34418 8.63478,-11.97894 3.96273,-4.33953 13.30898,-11.56218 13.30898,-11.56218 l -8.58557,1.31899 c 0,0 4.38016,-3.76844 6.57023,-5.65267 1.97256,-1.69707 5.91766,-5.09122 5.91766,-5.09122 l -2.23952,0.0788 c 0,0 10.35681,-9.4533 14.58047,-15.00206 4.88278,-6.41466 8.63472,-13.64927 12.22835,-20.86559 1.78248,-3.57937 3.06249,-7.38768 4.60471,-11.07695 1.0836,-2.59217 3.26623,-7.77004 3.26623,-7.77004 l -6.35794,2.4195 c 0,0 2.53386,-4.85481 4.44984,-6.74996 2.25407,-2.22956 7.99782,-5.14792 7.99782,-5.14792 0,0 -2.3341,-0.82939 -3.51251,-1.21003 -2.32806,-0.75198 -4.74814,-1.22917 -7.02648,-2.12052 -5.92529,-2.31813 -12.56618,-3.95238 -17.16474,-8.34966 -0.94265,-0.90139 -1.50522,-2.185492 -1.86725,-3.438503 -0.6652,-2.302284 -0.46736,-7.17416 -0.46736,-7.17416 0,0 13.56717,-7.401776 23.73037,-8.070757 9.61277,-0.632749 28.21985,0.165342 28.21985,0.165342 l 6.43623,0.457145 c 0,0 -0.42713,-1.598954 -0.6407,-2.398431 -0.18598,-0.696207 -0.83577,-2.088634 -0.83577,-2.088634 0,0 6.58537,-0.38014 10.1722,-0.415534 2.91777,-0.02879 9.34161,0.22298 9.34161,0.22298 0,0 -0.21145,-1.168777 -0.36379,-1.717835 -0.2245,-0.8091 -1.33522,-1.917507 -1.33522,-1.917507 0,0 9.56702,0.348666 14.17879,1.296852 5.65724,1.163133 11.23694,2.92166 16.62823,5.037105 8.55807,3.358031 16.63239,7.601925 24.78966,11.727663 5.72937,2.897766 11.44985,5.946478 16.95291,9.143474 4.43249,2.57505 11.32075,5.5017 12.90905,8.35802 1.2399,2.22978 0.31555,8.18479 0.31555,8.18479 0,0 -1.11891,-1.33444 -1.4787,-1.85729 -0.51367,-0.7465 -1.14167,-1.95076 -1.14167,-1.95076 0,0 -0.90793,6.93372 -2.12947,9.91386 -1.13788,2.77603 -2.75754,5.25425 -4.54311,7.49006 -0.71756,0.89849 -3.59788,5.42423 -3.59788,5.42423 0,0 0.11581,-1.32059 0.0704,-1.97915 -0.0478,-0.69284 -0.35939,-2.05224 -0.35939,-2.05224 0,0 -1.12692,2.36909 -2.12197,3.1533 -13.07589,10.30532 -25.31625,10.80471 -25.31625,10.80471 l 2.20628,0.8495 c 0,0 4.93705,1.24993 7.65218,1.69739 1.40859,0.23213 4.64473,0.60748 4.64473,0.60748 0,0 -2.52317,3.58719 -4.1778,4.99022 -1.96532,1.66648 -4.33685,3.05011 -6.44544,4.53116 -0.73567,0.51672 -2.29017,1.11605 -2.29017,1.11605 0,0 0.80589,-2.75275 1.23793,-4.30461 0.39205,-1.40823 0.95575,-4.45342 0.95575,-4.45342 0,0 -6.11254,4.47854 -9.34226,5.74073 -3.81668,1.49157 -12.25318,2.79581 -12.25318,2.79581 0,0 0.93129,-1.70692 1.39694,-2.56038 0.56114,-1.02847 1.68341,-3.08543 1.68341,-3.08543 0,0 -5.23013,0.76384 -7.88336,0.92588 -3.53409,0.21583 -10.67859,0.20774 -10.67859,0.20774 0,0 1.57459,-1.15809 2.36188,-1.84279 0.76073,-0.66159 2.43818,-2.6987 2.43818,-2.6987 0,0 -9.75384,0.0453 -14.62853,-0.0779 -5.80666,-0.14676 -17.40774,-0.78756 -17.40774,-0.78756 0,0 0.85327,1.33162 1.11521,1.73951 0.73353,1.1422 1.63909,1.69752 2.57892,2.40253 2.36741,1.77588 8.10388,3.74871 8.10388,3.74871 0,0 -0.76744,1.88112 -0.15337,3.00503 0.93464,1.71062 4.14734,1.79947 4.14734,1.79947 0,0 10.9553,7.95839 17.7039,12.11382 5.7147,3.51881 4.75433,4.56508 7.84321,8.67215 3.40331,4.52515 4.7007,8.87739 4.53946,8.74085 0,0 -2.34258,0.0479 -3.52008,-0.0707 -1.10027,-0.1108 -3.78546,-0.81263 -3.78546,-0.81263 0,0 3.49767,4.82291 4.92245,7.42978 1.62495,2.9731 4.10056,9.30072 4.10056,9.30072 0,0 -2.20048,-0.0736 -3.11796,-0.16245 -1.1824,-0.11451 -3.18169,-0.44767 -3.18169,-0.44767 0,0 2.97552,9.67652 3.41393,14.62331 0.3023,3.41094 -0.61062,10.18312 -0.61062,10.18312 0,0 -1.82515,-3.25616 -2.94447,-4.81943 -1.08114,-1.50996 -3.12087,-4.22576 -3.12087,-4.22576 0,0 -0.21137,7.53943 -0.87201,10.97883 -0.67652,3.5221 -3.13947,9.90566 -3.13947,9.90566 0,0 -2.43842,-9.53138 -3.68405,-14.2902 -0.47475,-1.81374 -1.44436,-5.4359 -1.44436,-5.4359 0,0 -3.89473,13.34914 -5.13626,19.88912 -1.37559,7.24616 -2.33977,14.20788 -2.95216,21.37389 -0.38186,4.46854 -0.36061,8.98922 -0.30795,13.48513 0.0417,3.56415 -0.15703,7.21207 0.15941,10.7978 0.25448,2.88374 0.91976,5.68268 1.83318,8.42975 0.35258,1.06036 0.92468,2.09258 1.48601,2.90936 0.91086,1.32537 3.12651,3.52508 3.12651,3.52508 l -4.17742,-0.98331 -4.02036,-1.03823 c 0,0 0.20959,1.33317 0.25286,2.14396 0.046,0.8618 0.54826,2.89862 0.54826,2.89862 0,0 -2.96809,-1.23801 -4.35462,-2.17804 -1.49213,-1.01163 -4.28137,-3.67692 -4.28137,-3.67692 l -2.42134,1.70942 c 0,0 -1.1588,-11.08862 -2.03552,-16.59102 -0.98576,-6.18671 -2.343,-12.30914 -3.62207,-18.44193 -0.88799,-4.25767 -2.4209,-8.40945 -2.81296,-12.74103 -0.32364,-3.57565 0.39588,-10.76352 0.39588,-10.76352 l -4.16256,5.74003 c 0,0 -1.06313,-5.42985 -1.03604,-8.17726 0.0398,-4.03507 1.75816,-11.97744 1.75816,-11.97744 l -5.43725,4.5218 c 0,0 -0.41189,-7.99019 0.39799,-11.86295 0.2216,-1.05964 0.93952,-3.32357 0.93952,-3.32357 0,0 -4.06763,4.50477 -5.35345,6.51981 -3.09491,4.8501 -4.04309,13.94377 -4.04309,13.94377 0,0 -2.18185,-4.89 -3.95663,-6.83389 -3.57293,-3.91339 -12.978,-9.18124 -12.978,-9.18124 0,0 0.3834,1.3515 0.62085,2.01198 0.1998,0.55576 0.67514,1.63809 0.67514,1.63809"
       id="path308526"
       sodipodi:nodetypes="cscscacsccsssccsccsscacscscsccaccsasccscsssscsccscscscssasscscsscscsccscsscscscscscscacsscscsscscacscscscscscsssssscccscsccsssccsccscscscac" />
  </g>
  <g
     inkscape:groupmode="layer"
     id="layer11"
     inkscape:label="Detalles"
     style="display:inline"
     transform="translate(-133.7192,-65.202047)">
    <path
       style="fill:#6d1901;fill-opacity:1;stroke:#560400;stroke-width:0.264583px;stroke-linecap:butt;stroke-linejoin:miter;stroke-opacity:1"
       d="m 247.52373,89.554155 c 9.78347,4.959548 19.80523,7.871149 29.40503,11.469305 0.84424,0.31643 1.84139,1.62916 1.74418,2.62128 -0.0725,0.74008 -0.6741,1.55389 -1.3524,1.85863 -0.95569,0.42937 -3.32895,0.3269 -3.32895,0.3269 0,0 0.5258,2.15699 -0.38705,3.49834 -1.44831,2.12817 -12.854,-1.06267 -17.11636,-1.24271 -5.23548,-0.22114 -11.50296,-0.0964 -11.50296,-0.0964 0,0 1.95225,-1.6638 3.12172,-2.13407 1.31963,-0.53065 4.20902,-0.70096 4.20902,-0.70096 0,0 -0.95186,-2.35904 -1.07592,-3.60784 -0.14197,-1.42913 0.67494,-4.063219 0.67494,-4.063219 0,0 -2.1406,-0.249271 -4.93583,-2.739644 -0.93896,-0.836551 -2.27724,-1.843183 -2.39598,-3.095126 -0.16104,-1.697953 1.85451,-2.64505 2.94056,-2.094496 z"
       id="path196954"
       sodipodi:nodetypes="sssscsscscscssss" />
    <path
       style="display:inline;fill:#6d1901;fill-opacity:1;stroke:#560400;stroke-width:0.264583px;stroke-linecap:butt;stroke-linejoin:miter;stroke-opacity:1"
       d="m 219.70947,70.023727 c 1.77001,-0.52998 3.27377,-0.240124 5.30885,0.426178 1.04642,0.342609 2.17754,1.088526 2.57827,2.114101 0.3209,0.82128 0.4045,1.92031 -0.2801,2.476013 -1.36881,1.111088 -3.84441,0.675539 -5.33432,0.30172 -2.06483,-0.518067 -3.47631,-1.971739 -3.56442,-3.676328 -0.0359,-0.695385 0.62467,-1.441953 1.29172,-1.641684 z"
       id="path199954"
       sodipodi:nodetypes="sssssss"
       transform="translate(117.43668,40.31669)" />
    <path
       style="fill:#6d1901;fill-opacity:1;stroke:#560400;stroke-width:0.264583px;stroke-linecap:butt;stroke-linejoin:miter;stroke-opacity:1"
       d="m 229.58912,89.351169 c 0,0 0.19065,1.907179 -0.18805,2.530195 -1.15649,1.902592 -5.13138,2.970137 -6.93734,4.272385 -1.86776,1.346815 -3.91981,4.058491 -3.91981,4.058491 l 7.02536,-0.293301 c 0,0 -3.48868,4.606561 -7.48266,6.224001 -4.5137,1.82792 -9.29376,1.60721 -13.70306,0.28587 -3.01713,-0.90414 -5.50875,-2.90152 -7.85348,-5.38506 -1.09565,-1.160514 -2.20469,-2.679353 -1.99544,-4.352406 0.23101,-1.847022 1.84392,-3.256193 3.40148,-4.275435 3.44511,-2.254422 11.75538,-3.98123 15.83794,-4.514086 6.59307,-0.860529 15.81506,1.449346 15.81506,1.449346 z"
       id="path235944"
       sodipodi:nodetypes="cssccssssssc" />
  </g>
  <g
     inkscape:groupmode="layer"
     id="layer12"
     inkscape:label="Sombras"
     style="display:inline"
     transform="translate(-133.7192,-65.202047)">
    <path
       style="fill:#dc5000;fill-opacity:1;stroke:#dc5000;stroke-width:0.264583px;stroke-linecap:butt;stroke-linejoin:miter;stroke-opacity:1"
       d="m 194.91974,96.148483 c 0,0 6.70388,-1.958278 10.33223,-2.143754 10.49561,-0.536519 11.74391,0.889736 11.74391,0.889736 0,0 -1.65623,1.162046 -3.81186,2.502511 -1.37661,0.856041 -2.26719,1.45234 -2.21338,2.511556 0.0638,1.257018 4.51194,1.702498 4.51194,1.702498 0,0 -3.46285,2.0687 -5.18363,2.18826 -5.22863,0.3633 -6.43188,0.25485 -11.05967,-1.06347 -1.51124,-0.43051 -2.27295,-1.72053 -3.65755,-3.361319 -1.14083,-1.351917 -0.66199,-3.226018 -0.66199,-3.226018 z"
       id="path247738"
       sodipodi:nodetypes="cscsscsssc" />
    <path
       style="display:inline;fill:#e05102;fill-opacity:1;stroke:#e05102;stroke-width:0.264583px;stroke-linecap:butt;stroke-linejoin:miter;stroke-opacity:1"
       d="m 317.06571,214.78414 c 0,0 0.57812,3.74573 2.56855,7.56259 1.84552,3.539 7.36489,9.5864 7.36489,9.5864 0,0 -8.38933,0.88187 -12.30811,2.04821 -4.87182,1.44998 -12.69948,5.81799 -12.69948,5.81799 0,0 0.43646,-4.58414 0.306,-6.94796 -0.14566,-2.63921 -1.20072,-7.29242 -1.20072,-7.29242 0,0 1.52054,-0.0391 1.82269,-0.60323 1.55156,-2.89691 1.16932,-5.25049 1.03979,-7.97121 -0.16737,-3.51567 -0.20273,-3.57462 -0.20273,-3.57462 3.62721,-0.50435 9.36259,0.86637 13.30912,1.37425 z"
       id="path190775-6"
       sodipodi:nodetypes="cscscscsscc" />
    <path
       style="fill:#069baa;fill-opacity:1;stroke:#069baa;stroke-width:0.264583px;stroke-linecap:butt;stroke-linejoin:miter;stroke-opacity:1"
       d="m 323.02943,198.72372 c -0.0794,0.10319 0.70046,-6.18621 3.60189,-11.22053 1.55422,-2.69676 5.34826,-7.65436 5.34826,-7.65436 l 4.82558,0.62881 c 0,0 -3.68669,4.91412 -5.1655,7.59501 -1.05553,1.91352 -1.92354,3.93848 -2.61873,6.0103 -0.51129,1.52374 -1.13009,4.6874 -1.13009,4.6874 z"
       id="path355396"
       sodipodi:nodetypes="csccaacc" />
    <path
       style="fill:#05a0af;fill-opacity:1;stroke:#05a0af;stroke-width:0.264583px;stroke-linecap:butt;stroke-linejoin:miter;stroke-opacity:1"
       d="m 332.08964,228.4306 5.8527,0.13924 c 0,0 7.35378,3.91467 11.38999,4.61412 5.91799,1.02555 12.35392,1.28894 18.00289,-0.7515 5.01904,-1.81291 12.72992,-9.70803 12.72992,-9.70803 l 6.36731,-2.32781 c 0,0 -4.04677,6.24433 -6.84776,8.61182 -2.11098,1.78427 -6.53786,4.17052 -9.09797,5.21249 -3.74773,1.52533 -6.73049,2.0566 -10.76778,2.32563 -7.63023,0.50845 -14.8899,-0.56496 -21.87307,-3.68173 -2.17978,-0.97289 -5.75623,-4.43423 -5.75623,-4.43423 z"
       id="path379251"
       sodipodi:nodetypes="ccssccssssc" />
    <path
       style="fill:#d9d4d0;fill-opacity:1;stroke:#d9d4d0;stroke-width:0.264583px;stroke-linecap:butt;stroke-linejoin:miter;stroke-opacity:1"
       d="m 384.66691,190.16702 3.79039,-1.32055 c 0,0 0.85781,3.80368 1.15343,5.72915 0.37575,2.44739 0.78602,7.3865 0.78602,7.3865 0,0 -1.83323,0.76472 -2.48499,1.97469 -0.68024,1.26284 -1.17954,3.41679 -1.00035,4.83995 0.0955,0.75842 0.9516,1.93154 0.8327,2.6364 -0.17082,1.01258 -0.7928,1.63953 -1.08979,2.71964 -0.37037,1.34698 -0.87862,2.85221 -0.67089,4.23365 0.0833,0.55422 0.47198,1.5244 0.47198,1.5244 l -6.22801,2.52625 c 0,0 4.0119,-8.38981 5.04731,-12.78764 1.03797,-4.4087 1.27397,-10.23066 0.91345,-13.55699 -0.36052,-3.32633 -1.52125,-5.90545 -1.52125,-5.90545 z"
       id="path387745"
       sodipodi:nodetypes="ccacsssssccscc" />
    <path
       style="display:inline;fill:#d8d5d0;fill-opacity:1;stroke:#d8d5d0;stroke-width:0.264583px;stroke-linecap:butt;stroke-linejoin:miter;stroke-opacity:1"
       d="m 205.49966,158.69517 4.89601,0.0342 c 0,0 -1.31377,10.58739 -0.38712,14.45007 1.59704,6.65707 10.22258,14.74549 10.22258,14.74549 l -6.02277,0.12266 c 0,0 -4.1359,-4.49353 -6.88689,-9.73598 -2.02395,-3.85695 -2.20517,-7.07798 -2.49028,-10.72521 -0.13873,-2.92096 0.11444,-5.92314 0.66847,-8.89122 z"
       id="path369935"
       sodipodi:nodetypes="ccsccscc"
       transform="translate(117.43668,40.31669)" />
  </g>
  <g
     inkscape:groupmode="layer"
     id="g247703"
     inkscape:label="Sombras más oscuras"
     style="display:inline"
     transform="translate(-133.7192,-65.202047)">
    <path
       style="display:inline;fill:#c44203;fill-opacity:1;stroke:#c44203;stroke-width:0.264583px;stroke-linecap:butt;stroke-linejoin:miter;stroke-opacity:1"
       d="m 323.96258,228.65612 c 3.03657,3.27701 3.03657,3.27701 3.03657,3.27701 0,0 -8.38933,0.88187 -12.30811,2.04821 -4.87182,1.44998 -12.69948,5.81799 -12.69948,5.81799 0,0 0.43646,-4.58414 0.306,-6.94796 -0.14566,-2.63921 -0.64886,-5.87632 -0.64886,-5.87632 3.79738,0.98754 16.02558,3.36171 22.31388,1.68107 z"
       id="path190775-6-2"
       sodipodi:nodetypes="ccscscc" />
  </g>
  <g
     inkscape:groupmode="layer"
     id="layer10"
     inkscape:label="Highlights"
     style="display:inline"
     transform="translate(-133.7192,-65.202047)">
    <path
       style="display:inline;fill:#fbfafd;fill-opacity:1;stroke:#fbfafd;stroke-width:0.264583px;stroke-linecap:butt;stroke-linejoin:miter;stroke-opacity:1"
       d="m 333.02278,170.44157 c 1.10983,-1.76698 3.6854,-3.25511 5.68289,-3.50745 8.8915,-1.12322 16.09607,-3.92105 24.07232,-4.84869 5.71526,-0.66468 6.59776,1.7629 6.59776,1.7629 0,0 -8.68078,1.98053 -11.12143,2.40597 -7.41331,1.07444 -25.38587,5.16027 -25.23154,4.18727 z"
       id="path138177-3"
       sodipodi:nodetypes="cssccc" />
    <path
       style="display:inline;fill:#f5f3f6;fill-opacity:1;stroke:#f5f3f6;stroke-width:0.264583px;stroke-linecap:butt;stroke-linejoin:miter;stroke-opacity:1"
       d="m 330.4959,148.50444 c 0,0 1.47727,-1.31743 3.30998,-0.86567 3.87074,0.95411 5.36895,3.44384 7.09103,5.82552 2.39803,3.31653 2.7871,7.58355 2.7871,7.58355 -1.20694,-0.12323 -1.45802,0.40218 -1.87905,-1.21622 0,0 -2.3185,-5.29883 -5.3364,-8.805 -2.05559,-2.38817 -5.97266,-2.52218 -5.97266,-2.52218 z"
       id="path178325-5"
       sodipodi:nodetypes="cssccsc" />
    <path
       style="fill:#ffa82a;fill-opacity:1;stroke:#ffa82a;stroke-width:0.264583px;stroke-linecap:butt;stroke-linejoin:miter;stroke-opacity:1"
       d="m 186.11492,90.707391 c 0.0541,-1.604744 9.74443,-7.116196 16.80011,-8.940549 13.06202,-3.377385 18.89625,-1.852288 28.62737,-2.122932 3.73745,-0.103947 11.73075,0.321988 11.73075,0.321988 0,0 -1.65216,-1.526539 -2.46183,-2.060567 -0.8837,-0.582851 -3.03397,-1.530501 -3.03397,-1.530501 0,0 5.05512,-0.653072 8.63712,-0.78947 3.66218,-0.139451 13.49902,0.21095 13.49902,0.21095 0,0 -1.49816,-1.568399 -2.34829,-2.126952 -1.2506,-0.821676 -3.95389,-2.013735 -3.95389,-2.013735 0,0 10.19722,-0.680447 14.52801,-0.233036 9.68288,1.000332 18.26658,3.426711 27.00103,6.492543 8.86874,3.112971 17.20171,7.61653 25.52189,11.989147 7.35199,3.863793 14.62926,7.922807 21.51587,12.565573 2.2753,1.53394 6.21184,4.21356 6.51459,5.03287 0.34616,0.93678 0.20566,2.98901 0.20566,2.98901 0,0 -11.36234,-7.08892 -17.22051,-10.32603 -9.56651,-5.286264 -19.30372,-10.84972 -29.32983,-15.201688 -7.87689,-3.419068 -15.71572,-6.540455 -24.11488,-8.455949 -4.89297,-1.115879 -15.13954,-1.412129 -15.13954,-1.412129 0,0 0.8747,1.242611 1.30362,2.04838 0.25704,0.482884 0.75425,1.817579 0.75425,1.817579 0,0 -6.59655,-0.266873 -9.99102,-0.273815 -3.18034,-0.0065 -9.73341,0.233475 -9.73341,0.233475 0,0 0.17632,1.440953 0.37336,2.150819 0.24421,0.879821 0.95039,2.618242 0.95039,2.618242 0,0 -20.14642,-1.865829 -30.18178,-1.069525 -5.6619,0.449271 -10.59787,0.721297 -16.72014,3.28136 -3.78203,1.581479 -6.57097,2.678039 -11.14852,5.191747 -0.77025,0.422974 -2.60909,0.315174 -2.58543,-0.386802 z"
       id="path280757"
       sodipodi:nodetypes="ssscscscscssssscssscscscscsssss" />
    <path
       style="fill:#65ccd9;fill-opacity:1;stroke:#65ccd9;stroke-width:0.264583px;stroke-linecap:butt;stroke-linejoin:miter;stroke-opacity:1"
       d="m 367.27339,174.03652 c 0,0 3.56668,-2.34281 5.57172,-1.8653 3.27347,0.77961 5.56903,2.26777 9.72393,6.49425 3.82965,3.89564 5.84341,9.82505 5.84341,9.82505 l -3.91239,1.46746 c 0,0 -2.59199,-5.42078 -4.362,-7.50325 -1.34406,-1.58132 -3.1244,-2.74911 -4.8423,-3.91353 -2.53864,-1.72073 -8.02237,-4.50468 -8.02237,-4.50468 z"
       id="path396311"
       sodipodi:nodetypes="cssccssc" />
    <path
       style="fill:#ffa62b;fill-opacity:1;stroke:#ffa62b;stroke-width:0.264583px;stroke-linecap:butt;stroke-linejoin:miter;stroke-opacity:1"
       d="m 276.44133,226.17285 c 0,0 -6.8853,23.84108 -7.50481,37.98026 -0.25042,5.71534 -0.89707,15.05565 -0.85116,22.59128 0.0442,7.25664 2.41927,14.52863 2.41927,14.52863 0,0 -3.82468,-7.07603 -4.61442,-10.96071 -2.08116,-10.23715 -0.083,-31.33956 -0.083,-31.33956 0,0 1.99679,-21.37558 7.76269,-29.91139 0.73332,-1.08561 2.87143,-2.88851 2.87143,-2.88851 z"
       id="path404262"
       sodipodi:nodetypes="csscscsc" />
    <path
       style="display:inline;fill:#fea92d;fill-opacity:1;stroke:#fea92d;stroke-width:0.264583px;stroke-linecap:butt;stroke-linejoin:miter;stroke-opacity:1"
       d="m 77.9535,190.17717 c 0,0 6.271171,-0.29334 9.247422,0.52797 3.227661,0.89069 6.289112,2.69824 8.902927,4.65166 4.951791,3.7007 6.103751,5.35954 8.419301,9.41296 0.38213,0.66893 1.32104,3.52487 1.32104,3.52487 0,0 -1.98881,-1.60889 -3.09329,-2.23241 -1.15526,-0.65218 -3.943649,-1.52437 -3.943649,-1.52437 0,0 3.183839,5.65507 3.946009,8.86208 0.56233,2.36613 0.70372,7.34267 0.70372,7.34267 0,0 -2.66225,-7.59136 -4.793929,-10.962 -1.86057,-2.94195 -6.693357,-8.14591 -6.693357,-8.14591 0,0 1.528043,-0.19116 2.295044,-0.17363 1.055358,0.0241 3.143666,0.3829 3.143666,0.3829 0,0 -2.421348,-3.42889 -4.053935,-4.56501 C 88.73249,194.06249 77.9535,190.17717 77.9535,190.17717 Z"
       id="path405038"
       sodipodi:nodetypes="casscscscscacsc"
       transform="translate(117.43668,40.31669)" />
  </g>
</svg>
