<svg xmlns="http://www.w3.org/2000/svg" width="340" height="150" fill="none" viewBox="0 0 340 150"><g fill="#03002A"><path d="M62.89 15h-4.33a.5.5 0 0 0-.52.51v9.9c0 .28.23.51.52.51h4.33c.28 0 .51-.23.51-.5v-9.9a.5.5 0 0 0-.51-.52m5.63 3.73-1.63 7a.5.5 0 0 0 .38.61l4.22.98a.5.5 0 0 0 .62-.38l1.63-7a.5.5 0 0 0-.39-.61l-4.22-.98a.5.5 0 0 0-.61.38m8.55 5.51-1.88 3.9a.5.5 0 0 0 .24.7l3.9 1.87c.26.12.57.02.69-.24l1.88-3.9a.5.5 0 0 0-.24-.69l-3.9-1.87a.5.5 0 0 0-.69.23m-24.72-5.89-4.22.98a.5.5 0 0 0-.38.62l1.63 7c.06.27.34.44.61.38l4.22-.99a.5.5 0 0 0 .38-.61l-1.63-7a.5.5 0 0 0-.61-.38M43.73 24l-3.9 1.88a.5.5 0 0 0-.24.68l1.87 3.9c.13.26.43.37.69.24l3.9-1.87a.5.5 0 0 0 .24-.69l-1.88-3.9a.5.5 0 0 0-.68-.24m17 23.64c-12.38 0-22.06 15.6-22.06 35.52s9.68 35.53 22.06 35.53 22.05-15.6 22.05-35.53-9.7-35.52-22.05-35.52m0 5.36c7.77 0 14.5 10.18 16.25 23.4L51.26 59.39a.5.5 0 0 1-.12-.74c2.73-3.54 6.05-5.65 9.59-5.65M48.58 64.03l24.99 16.54H44.63a.5.5 0 0 1-.51-.55 46 46 0 0 1 3.7-15.79.5.5 0 0 1 .75-.2zm12.15 49.3c-8.44 0-15.66-11.99-16.6-26.85a.5.5 0 0 1 .52-.55H76.8c.3 0 .53.25.52.55-.94 14.86-8.16 26.86-16.6 26.86M94.26 73.1a8.6 8.6 0 0 1-8.6-8.6c0-.4 0-.96.15-1.52l3.25-14.75s.08-.34.08-.73a3.23 3.23 0 0 0-4.24-3.07.5.5 0 0 1-.6-.25l-1.91-3.93a.5.5 0 0 1 .27-.68 8.6 8.6 0 0 1 11.59 10L91.03 64.2v.12c-.02 1.86 1.48 3.49 3.34 3.43q.4-.01.8-.13a.5.5 0 0 1 .6.28l1.78 3.98a.5.5 0 0 1-.3.69q-1.43.53-2.99.53m-66.86.01a9 9 0 0 1-3.01-.54.5.5 0 0 1-.27-.67l1.78-4a.5.5 0 0 1 .6-.27q.39.11.8.12c1.86.06 3.36-1.56 3.33-3.43v-.14l-3.2-14.6a8.6 8.6 0 0 1 11.59-10c.26.1.39.41.26.68l-1.9 3.94a.5.5 0 0 1-.61.25 3.23 3.23 0 0 0-4.15 3.82l.02.1L35.84 63c.15.57.15 1.12.15 1.54a8.6 8.6 0 0 1-8.58 8.58m50-36.87a.5.5 0 0 0-.21-.67 35 35 0 0 0-16.37-4.16h-.4a34.4 34.4 0 0 0-15.96 4.15.5.5 0 0 0-.21.67l1.9 3.91a.5.5 0 0 0 .7.23A29 29 0 0 1 60.5 36.8h.33c6.1 0 10.98 1.95 14 3.6.26.13.58.03.7-.23l1.89-3.9z"/><path d="M104.43 99.28c-.12-.82-.54-2.99-1.69-5.45-1.03-2.2-2.08-3.4-2.85-4.28-.65-.73-.94-1.06-1.14-1.83a5.7 5.7 0 0 1 .94-4.9 5 5 0 0 1 1.98-1.48.5.5 0 0 0 .26-.68l-1.88-3.92a.5.5 0 0 0-.67-.24c-1.3.59-2.7 1.51-3.87 2.98a11 11 0 0 0-1.93 9.66 9 9 0 0 0 2.29 3.95c.67.76 1.31 1.5 2.03 3a15 15 0 0 1 1.24 3.98c.66 4.36-1.2 7.86-1.58 8.51a14.3 14.3 0 0 1-5.5 5.23 14 14 0 0 1-4.12 1.61c-1.3.34-2.78.73-4.8 1.66a29 29 0 0 0-8.45 5.99l-.14.16a18.2 18.2 0 0 1-13.72 6.43 18.2 18.2 0 0 1-13.72-6.43l-.13-.16a30 30 0 0 0-8.46-6 26 26 0 0 0-4.79-1.65 14 14 0 0 1-4.12-1.61 14.3 14.3 0 0 1-5.5-5.23 14 14 0 0 1-1.58-8.51c.07-.46.36-2.09 1.24-3.97.72-1.53 1.36-2.25 2.03-3.01.82-.94 1.75-2 2.29-3.95.72-2.6.59-6.52-1.93-9.66a10.4 10.4 0 0 0-3.7-2.9.5.5 0 0 0-.67.23l-1.89 3.91a.5.5 0 0 0 .25.68c.63.29 1.28.74 1.83 1.42a5.7 5.7 0 0 1 .94 4.9c-.2.76-.5 1.08-1.15 1.82-.76.88-1.82 2.07-2.85 4.28a20 20 0 0 0-1.69 5.45 19 19 0 0 0 2.24 11.99c2.42 4.2 5.92 6.27 7.4 7.16a19 19 0 0 0 5.5 2.18c1.18.31 2.31.6 3.9 1.34a24 24 0 0 1 6.82 4.82l.03.02A23.6 23.6 0 0 0 60.78 135h.1a23.5 23.5 0 0 0 17.66-8.22l.02-.02a24 24 0 0 1 6.82-4.82 21 21 0 0 1 3.9-1.34c1.59-.41 3.22-.84 5.5-2.18 1.49-.89 4.98-2.96 7.4-7.16.75-1.3 3.14-6.02 2.24-12zm33.3 3.17c3 0 4.96-1.46 4.96-4.27 0-2.9-2.47-3.68-4.48-4.3-1.48-.5-2.79-.95-2.79-2.1 0-1.2.95-1.73 2.37-1.73 1.57 0 3.09.42 4.24 1.01.03-.92.03-2.02.03-2.9-1-.48-2.4-.8-4.06-.8-2.79 0-5.1 1.57-5.1 4.7 0 3 2.55 3.86 4.6 4.58 1.42.5 2.64.94 2.64 1.98 0 1.07-.86 1.63-2.23 1.63a8.7 8.7 0 0 1-4.71-1.45v2.64c1.21.6 2.75 1 4.53 1m14.09.01c2.52 0 3.97-1.1 4.24-3.09-.77.54-1.78.83-3.12.83q-2.7-.01-2.7-2.7V87.42l-3.61.66c.44.97.65 1.86.65 2.99v7c0 3.02 1.8 4.39 4.54 4.39m7.02 0c.98 0 1.75-.21 2.23-.48v-1.9q-.42.14-.95.12c-.74 0-1.19-.41-1.19-1.21q0-2.1.1-4.69c.05-2.22.11-4.74.11-6.88l-3.7.66q.66 1.35.65 3.1v4.87c0 1.16-.03 2.34-.03 3.44 0 1.87 1.06 2.97 2.78 2.97m6.14 6.27h3.77a6 6 0 0 1-.45-2.49v-4.45c.9.42 1.9.66 3.23.66 3.86 0 6.65-3.09 6.65-7.83 0-4.72-2.38-7.27-5.85-7.27-2.19 0-3.58 1.13-4.03 3.18a5.4 5.4 0 0 1 2.58-.57c2.76 0 4.3 1.81 4.3 5.2 0 3.25-1.6 5.03-4.1 5.03a8 8 0 0 1-2.78-.41V87.29l-3.91 1.3q.94 1.58.95 3.18v14.47c0 1.13-.15 1.87-.36 2.5m23.46-6.29c2.01 0 3.59-.39 4.77-.95v-2.28c-1.15.44-2.52.83-4.2.83-3.27 0-4.96-1.81-4.96-4.19v-.5h9.52q.04-.57.03-1.1-.02-6.9-5.73-6.9c-4.06 0-6.67 3.14-6.67 7.82 0 4.72 2.61 7.27 7.24 7.27m-4.27-9.08c.26-2.1 1.36-3.47 3.47-3.47 2.07 0 3.02 1.34 3.08 3.47zm13.31 8.84H201a9 9 0 0 1-.33-2.5V87.3l-3.47.69c.45 1 .57 1.9.57 3v8.74c0 1.07-.1 1.8-.3 2.49m8.45-11.62.06-3.18a7 7 0 0 0-1.57.06c-2.02.18-3.32 1.28-3.74 3.44.9-.41 1.9-.6 2.85-.6.83 0 1.66.13 2.4.28m8.49 11.85c1.54 0 2.82-.24 3.94-.6v-2.28c-1 .36-2.07.62-3.35.62-2.84 0-4.8-1.75-4.8-5.1 0-3 1.54-4.98 4.33-4.98a9 9 0 0 1 3.91.9v-2.89c-1-.41-2.4-.77-4.2-.77-3.92 0-6.86 3.06-6.86 7.68 0 4.87 2.94 7.42 7.03 7.42m11.12-17.15h2.31l4.24-4.7h-3.91zm1.75 17.15c4.1 0 6.67-3.03 6.67-7.5 0-4.69-2.52-7.6-6.7-7.6-4 0-6.73 3.18-6.73 7.74s2.73 7.36 6.76 7.36m.09-2.34c-2.37 0-3.86-2.02-3.86-5.05s1.28-4.95 3.74-4.95c2.4 0 3.7 2.1 3.7 5.25 0 2.9-1.3 4.75-3.58 4.75m28.03 2.1h3.4a10 10 0 0 1-.26-2.5v-7.9c0-2.77-1.6-4.46-4.36-4.46-2.38 0-3.92 1.04-4.48 3.27-.39-2.05-1.9-3.27-4.24-3.27-2.37 0-3.95 1.04-4.48 3.3q1.47-.6 3.14-.6c1.84 0 2.76.8 2.76 2.58v7.09c0 1.04-.09 1.78-.2 2.49h3.4a10 10 0 0 1-.26-2.5v-7.9q0-.62-.12-1.16 1.46-.6 3.14-.6c1.84 0 2.76.8 2.76 2.58v7.09c0 1.04-.09 1.78-.2 2.49m-17.83-14.17c.33 1.1.45 2.04.45 3.2v8.48c0 1.04-.06 1.78-.27 2.49h3.5c-.15-.71-.27-1.45-.27-2.5v-12.3Zm26.39 20.69h3.77a6 6 0 0 1-.44-2.49v-4.45c.89.42 1.9.66 3.23.66 3.85 0 6.64-3.09 6.64-7.83 0-4.72-2.37-7.27-5.84-7.27-2.2 0-3.59 1.13-4.03 3.18a5.4 5.4 0 0 1 2.57-.57c2.76 0 4.3 1.81 4.3 5.2 0 3.25-1.6 5.03-4.09 5.03a8 8 0 0 1-2.78-.41V87.29l-3.92 1.3q.94 1.58.95 3.18v14.47c0 1.13-.15 1.87-.36 2.5m22.13-6.29c2.52 0 3.97-1.1 4.24-3.09a5.3 5.3 0 0 1-3.12.83q-2.7-.01-2.7-2.7V87.42l-3.61.66c.44.97.65 1.86.65 2.99v7c0 3.02 1.8 4.39 4.54 4.39m7.02 0c.98 0 1.75-.21 2.23-.48v-1.9q-.42.14-.95.12c-.74 0-1.19-.41-1.19-1.21q0-2.1.1-4.69c.05-2.22.11-4.74.11-6.88l-3.7.66q.66 1.35.65 3.1v4.87c0 1.16-.03 2.34-.03 3.44 0 1.87 1.06 2.97 2.78 2.97m10.99-.01c1.37 0 2.65-.24 3.57-.54V99.7c-.87.2-1.84.42-2.94.42-1.45 0-2.2-.78-2.2-2.17v-7.56h5.05l.14-2.58h-5.16V84.7l-5.3 5.67h2.34l-.06 7.74c-.03 2.96 1.63 4.33 4.57 4.33m12.19.01c4.09 0 6.67-3.03 6.67-7.5 0-4.69-2.52-7.6-6.7-7.6-4 0-6.73 3.18-6.73 7.74s2.73 7.36 6.76 7.36m.09-2.34c-2.38 0-3.86-2.02-3.86-5.05s1.28-4.95 3.74-4.95c2.4 0 3.7 2.1 3.7 5.25 0 2.9-1.3 4.75-3.58 4.75M151.02 63.84v3.32a9 9 0 0 1-3.59.62c-2.61 0-4.25-1.4-4.41-4.18-.32 2.66-2.16 4.18-5.32 4.18-3.59 0-5.86-1.88-5.86-5.55v-9.65c0-1.52-.31-2.65-.98-3.67l6.41-1.17v13.4c0 1.75.94 2.8 2.58 2.8 1.33 0 2.3-.23 3.17-.62v-.16c0-1.25.07-2.65.07-4.03v-6.52c0-1.57-.39-2.78-1.02-3.71l6.65-1.17c-.04 2.73-.24 6.6-.28 9.57q-.07 3.04-.08 5.08c0 1.02.67 1.57 1.53 1.57.38 0 .82-.05 1.13-.12zm4.74.48V53.23c0-1.56-.12-2.8-.43-4.3l5.82-1.01v16.4c0 1.33.11 2.35.3 3.33h-6.09c.28-.98.39-2 .39-3.33zm11.36 0v-9.26c0-1.8-1.05-2.54-2.78-2.54-1.25 0-2.15.08-3.2.32.59-3.33 2.61-4.97 5.94-4.97 3.32 0 5.39 2.2 5.39 5.79v10.66c0 1.33.16 2.35.43 3.33h-6.06c.2-.98.28-2 .28-3.33m10.5-6.5c0-6.13 4.03-10.11 9.1-10.11 2.38 0 4.37.38 5.79.93v4.73c-1.45-.5-3.01-.9-4.85-.9-3.28 0-4.92 2.26-4.92 5.74 0 3.7 2.19 5.7 5.4 5.7 1.56 0 3.04-.35 4.3-.74V67c-1.6.5-3.4.78-5.52.78-5.46 0-9.3-3.28-9.3-9.97z"/></g></svg>